<?xml version="1.0" standalone="no"?>
<!DOCTYPE svg PUBLIC "-//W3C//DTD SVG 1.1//EN" "http://www.w3.org/Graphics/SVG/1.1/DTD/svg11.dtd" >
<svg xmlns="http://www.w3.org/2000/svg">
<metadata>Generated by IcoMoon</metadata>
<defs>
<font id="icomoon" horiz-adv-x="1024">
<font-face units-per-em="1024" ascent="960" descent="-64" />
<missing-glyph horiz-adv-x="1024" />
<glyph unicode="&#x20;" horiz-adv-x="512" d="" />
<glyph unicode="&#xe900;" glyph-name="account_circle" d="M247.467 205.867c42.667 27.733 84.977 48.89 126.933 63.467s87.823 21.867 137.6 21.867c49.777 0 95.823-7.29 138.133-21.867s84.8-35.733 127.467-63.467c30.577 36.267 53.51 74.31 68.8 114.133s22.933 82.49 22.933 128c0 100.977-34.31 185.777-102.933 254.4s-153.423 102.933-254.4 102.933c-100.977 0-185.777-34.311-254.4-102.933s-102.933-153.423-102.933-254.4c0-45.51 7.644-88.177 22.933-128s38.577-77.867 69.867-114.133zM512 423.467c-38.4 0-70.756 13.156-97.067 39.467s-39.467 58.667-39.467 97.067c0 38.4 13.156 70.756 39.467 97.067s58.667 39.467 97.067 39.467c38.4 0 70.756-13.156 97.067-39.467s39.467-58.667 39.467-97.067c0-38.4-13.156-70.756-39.467-97.067s-58.667-39.467-97.067-39.467zM512 42.667c-56.177 0-108.977 10.667-158.4 32s-92.444 50.31-129.067 86.933c-36.622 36.623-65.422 79.467-86.4 128.533s-31.467 102.044-31.467 158.933c0 55.467 10.667 107.91 32 157.333s50.311 92.267 86.933 128.533c36.623 36.267 79.467 65.067 128.533 86.4s102.044 32 158.933 32c55.467 0 107.91-10.667 157.333-32s92.267-50.133 128.533-86.4c36.267-36.267 65.067-79.11 86.4-128.533s32-102.223 32-158.4c0-56.177-10.667-108.8-32-157.867s-50.133-91.91-86.4-128.533c-36.267-36.623-79.11-65.6-128.533-86.933s-102.223-32-158.4-32z" />
<glyph unicode="&#xe901;" glyph-name="add_box" d="M512 245.333c7.11 0 12.977 2.31 17.6 6.933s6.933 10.49 6.933 17.6v153.6h153.6c7.11 0 12.977 2.31 17.6 6.933s6.933 10.49 6.933 17.6c0 7.11-2.31 12.977-6.933 17.6s-10.49 6.933-17.6 6.933h-153.6v153.6c0 7.11-2.31 12.977-6.933 17.6s-10.49 6.933-17.6 6.933c-7.11 0-12.977-2.31-17.6-6.933s-6.933-10.49-6.933-17.6v-153.6h-153.6c-7.11 0-12.977-2.31-17.6-6.933s-6.933-10.49-6.933-17.6c0-7.11 2.31-12.977 6.933-17.6s10.49-6.933 17.6-6.933h153.6v-153.6c0-7.11 2.31-12.977 6.933-17.6s10.49-6.933 17.6-6.933zM211.2 85.333c-17.067 0-31.644 6.044-43.733 18.133s-18.133 26.667-18.133 43.733v601.6c0 17.067 6.044 31.644 18.133 43.733s26.667 18.133 43.733 18.133h601.6c17.067 0 31.644-6.044 43.733-18.133s18.133-26.667 18.133-43.733v-601.6c0-17.067-6.044-31.644-18.133-43.733s-26.667-18.133-43.733-18.133h-601.6z" />
<glyph unicode="&#xe902;" glyph-name="add" d="M512 160c-7.11 0-12.977 2.31-17.6 6.933s-6.933 10.49-6.933 17.6v238.933h-238.933c-7.11 0-12.977 2.31-17.6 6.933s-6.933 10.49-6.933 17.6c0 7.11 2.31 12.977 6.933 17.6s10.49 6.933 17.6 6.933h238.933v238.933c0 7.11 2.31 12.977 6.933 17.6s10.49 6.933 17.6 6.933c7.11 0 12.977-2.31 17.6-6.933s6.933-10.49 6.933-17.6v-238.933h238.933c7.11 0 12.977-2.31 17.6-6.933s6.933-10.49 6.933-17.6c0-7.11-2.31-12.977-6.933-17.6s-10.49-6.933-17.6-6.933h-238.933v-238.933c0-7.11-2.31-12.977-6.933-17.6s-10.49-6.933-17.6-6.933z" />
<glyph unicode="&#xe903;" glyph-name="admin_meds" d="M753.525 735.213h-488.521c-52.012 0-94.338-42.543-94.338-94.848v-524.207c0-52.279 42.326-94.825 94.338-94.825h488.546c52.038 0 94.364 42.545 94.364 94.825v524.207c-0.026 52.305-42.351 94.848-94.389 94.848zM799.413 116.158c0-25.419-20.574-46.099-45.888-46.099h-488.521c-25.289 0-45.862 20.681-45.862 46.099v524.207c0 25.444 20.574 46.123 45.862 46.123h488.546c25.314 0 45.888-20.678 45.888-46.123v-524.207h-0.026zM802.157 874.667h-585.756v-48.725h585.756v48.725zM454.731 165.293v0.307l45.274 219.213-95.029 0.102 89.649 206.362 111.759-0.954-69.536-142.157 76.736-0.363-158.852-282.511z" />
<glyph unicode="&#xe904;" glyph-name="approval_delegation" d="M551.467 499.198l-161.067 161.067 34.133 34.133 126.933-126.933 247.469 246.4 34.131-33.067-281.6-281.6zM595.2 31.998l-336 97.067v314.667h104.533l266.667-99.2c16.356-5.69 30.223-15.644 41.6-29.867 11.379-14.223 17.067-35.2 17.067-62.933h-51.2c-32 0-57.067 1.067-75.2 3.2s-35.733 6.044-52.8 11.733l-77.867 26.667-10.667-28.8 83.2-28.8c14.933-4.977 32.713-8.533 53.333-10.667 20.623-2.133 40.89-3.2 60.8-3.2h204.8c32 0 54.4-7.29 67.2-21.867s19.202-32.89 19.202-54.933v-16l-314.669-97.067zM65.068 71.465v372.267h144v-372.267h-144z" />
<glyph unicode="&#xe905;" glyph-name="arrow_back_ios_new" d="M610.133 60.798l-365.867 365.867c-3.556 2.844-6.044 6.044-7.467 9.6s-2.133 7.467-2.133 11.733c0 4.267 0.71 8.177 2.133 11.733s3.91 6.756 7.467 9.6l366.933 366.933c5.69 6.4 13.51 9.6 23.467 9.6s18.133-3.555 24.533-10.667c6.4-6.4 9.6-14.578 9.6-24.533s-3.2-18.133-9.6-24.533l-338.133-338.133 338.133-338.133c7.11-7.823 10.49-16.177 10.133-25.067s-3.733-16.89-10.133-24c-7.11-6.4-15.467-9.6-25.067-9.6s-17.6 3.2-24 9.6z" />
<glyph unicode="&#xe906;" glyph-name="arrow_back" d="M483.2 139.733l-286.933 286.933c-3.556 2.846-6.044 6.046-7.467 9.6-1.422 3.556-2.133 7.467-2.133 11.733s0.711 8.179 2.133 11.733c1.422 3.556 3.911 6.756 7.467 9.6l288 288.001c4.267 4.267 9.6 6.4 16 6.4s11.733-2.489 16-7.467c4.977-4.978 7.467-10.668 7.467-17.068s-2.49-12.087-7.467-17.067l-249.6-249.6h534.4c6.4 0 11.91-2.31 16.533-6.933 4.623-4.621 6.933-10.487 6.933-17.6 0-7.11-2.31-12.977-6.933-17.6-4.623-4.621-10.133-6.933-16.533-6.933h-534.4l250.667-250.667c4.267-4.267 6.4-9.6 6.4-16s-2.49-12.087-7.467-17.067c-4.977-4.977-10.667-7.465-17.067-7.465s-11.733 2.487-16 7.465z" />
<glyph unicode="&#xe907;" glyph-name="arrow_downward" d="M512 135.467c-3.556 0-7.29 0.71-11.2 2.133-3.913 1.423-7.29 3.91-10.133 7.467l-286.934 285.867c-4.978 4.977-7.467 10.667-7.467 17.067s2.489 12.090 7.467 17.067c4.978 4.977 10.668 7.467 17.068 7.467s12.087-2.49 17.067-7.467l249.6-249.6v533.333c0 7.111 2.31 12.978 6.933 17.6 4.621 4.622 10.487 6.933 17.6 6.933 7.11 0 12.977-2.311 17.6-6.933 4.621-4.622 6.933-10.489 6.933-17.6v-533.333l249.598 249.6c4.979 4.977 10.669 7.467 17.069 7.467s12.087-2.49 17.067-7.467c4.977-4.977 7.465-10.667 7.465-17.067s-2.487-12.090-7.465-17.067l-286.933-285.867c-2.846-3.556-6.046-6.044-9.6-7.467-3.556-1.423-7.467-2.133-11.733-2.133z" />
<glyph unicode="&#xe908;" glyph-name="arrow_forward_ios" d="M372.826 48.506c-6.4 6.4-9.6 14.4-9.6 24s3.2 17.956 9.6 25.067l338.133 338.133-338.133 338.133c-6.4 6.4-9.777 14.222-10.133 23.467s3.023 17.422 10.133 24.533c6.4 6.4 14.577 9.778 24.533 10.133s18.133-2.667 24.533-9.067l365.867-365.866c3.556-3.556 6.044-7.11 7.467-10.667s2.133-7.11 2.133-10.667c0-4.267-0.71-8.177-2.133-11.733s-3.91-7.11-7.467-10.667l-365.867-365.867c-6.4-6.4-14.4-9.6-24-9.6s-17.956 3.556-25.067 10.667z" />
<glyph unicode="&#xe909;" glyph-name="arrow_forward" d="M494.933 140.8c-4.267 4.267-6.4 9.956-6.4 17.067s2.133 12.8 6.4 17.067l248.533 248.533h-532.267c-7.111 0-12.978 2.31-17.6 6.933s-6.933 10.49-6.933 17.6c0 7.11 2.311 12.977 6.933 17.6s10.489 6.933 17.6 6.933h532.267l-248.533 248.533c-4.267 4.267-6.4 9.956-6.4 17.067s2.133 13.156 6.4 18.133c4.267 4.267 9.956 6.4 17.067 6.4s12.8-2.133 17.067-6.4l285.867-286.933c3.556-2.844 6.044-6.044 7.467-9.6s2.133-7.467 2.133-11.733c0-3.556-0.71-7.29-2.133-11.2s-3.91-7.29-7.467-10.133l-285.867-286.933c-4.267-4.267-9.956-6.223-17.067-5.867s-12.8 2.667-17.067 6.933z" />
<glyph unicode="&#xe90a;" glyph-name="arrow_upward" d="M512 122.665c-7.113 0-12.979 2.31-17.6 6.933-4.623 4.623-6.933 10.49-6.933 17.6v533.333l-249.6-249.6c-4.267-4.977-9.779-7.467-16.533-7.467-6.756 0-12.623 2.49-17.601 7.467s-7.467 10.667-7.467 17.067c0 6.4 2.489 12.090 7.467 17.067l286.934 285.867c2.844 3.556 6.221 6.045 10.133 7.467 3.91 1.422 7.644 2.133 11.2 2.133 4.267 0 8.177-0.711 11.733-2.133 3.554-1.422 6.754-3.911 9.6-7.467l286.933-285.867c4.977-4.977 7.465-10.667 7.465-17.067s-2.487-12.090-7.465-17.067c-4.979-4.977-10.667-7.467-17.067-7.467s-12.090 2.49-17.069 7.467l-249.598 249.6v-533.333c0-7.11-2.313-12.977-6.933-17.6-4.623-4.623-10.49-6.933-17.6-6.933z" />
<glyph unicode="&#xe90b;" glyph-name="assured_workload" d="M278.4 203.735c-6.4 0-11.91 2.31-16.533 6.933-4.621 4.623-6.933 10.49-6.933 17.6v317.867c0 7.11 2.313 12.977 6.933 17.6 4.623 4.623 10.49 6.933 17.6 6.933 7.113 0 12.8-2.31 17.067-6.933s6.4-10.49 6.4-17.6v-317.867c0-7.11-2.31-12.977-6.933-17.6-4.621-4.623-10.487-6.933-17.6-6.933zM515.2 203.735c-7.11 0-12.977 2.31-17.598 6.933-4.623 4.623-6.935 10.49-6.935 17.6v317.867c0 7.11 2.313 12.977 6.935 17.6 4.621 4.623 10.487 6.933 17.598 6.933 7.113 0 12.979-2.31 17.6-6.933 4.623-4.623 6.933-10.49 6.933-17.6v-317.867c0-7.11-2.487-12.977-7.465-17.6s-10.669-6.933-17.069-6.933zM142.934 640.002c-7.111 0-12.978 2.49-17.6 7.467s-6.933 10.667-6.933 17.067c0 3.556 1.244 7.823 3.733 12.8s5.511 8.533 9.067 10.667l357.332 193.067c3.556 2.133 7.29 3.733 11.2 4.8 3.913 1.067 8 1.6 12.267 1.6s8.356-0.533 12.269-1.6c3.91-1.067 7.644-2.667 11.198-4.8l357.333-193.067c3.556-2.133 6.579-5.69 9.069-10.667 2.487-4.977 3.733-9.244 3.733-12.8 0-7.11-2.313-12.977-6.935-17.6s-10.133-6.933-16.533-6.933h-739.199zM141.868 86.402c-6.4 0-11.911 2.31-16.533 6.933s-6.933 10.49-6.933 17.6c0 6.4 2.311 11.91 6.933 16.533s10.133 6.933 16.533 6.933h484.266c0.713-7.823 1.6-15.644 2.667-23.467s3.023-16 5.867-24.533h-492.799zM721.067 359.469v186.667c0 7.11 2.313 12.977 6.933 17.6 4.623 4.623 10.49 6.933 17.602 6.933 6.4 0 11.91-2.31 16.531-6.933 4.623-4.623 6.933-10.49 6.933-17.6v-163.2l-48-23.467zM853.333-47.998c-45.51 11.377-83.198 37.51-113.065 78.4s-44.802 86.223-44.802 136v82.133c0 4.977 1.602 10.133 4.802 15.467s7.644 9.067 13.333 11.2l126.933 64c3.554 2.133 7.821 3.2 12.798 3.2 4.979 0 9.602-1.067 13.869-3.2l125.865-64c5.69-2.133 10.133-5.867 13.333-11.2s4.802-10.49 4.802-15.467v-82.133c0-49.777-14.935-95.11-44.802-136s-67.554-67.023-113.067-78.4zM956.8 201.602c3.556 3.556 5.513 7.644 5.867 12.267 0.356 4.623-1.244 9.067-4.798 13.333-3.556 3.556-7.823 5.333-12.802 5.333-4.977 0-9.244-1.777-12.798-5.333l-103.469-104.533-44.8 44.8c-3.554 3.556-7.644 5.333-12.267 5.333-4.621 0-8.71-1.777-12.267-5.333-3.554-3.556-5.333-7.644-5.333-12.267s1.779-8.71 5.333-12.267l48-48c2.846-3.556 6.046-6.044 9.6-7.467 3.556-1.423 7.467-2.133 11.733-2.133s8 0.71 11.2 2.133c3.2 1.423 6.579 3.91 10.133 7.467l106.667 106.667z" />
<glyph unicode="&#xe90c;" glyph-name="autorenew" d="M200.533 336c-7.111 17.779-12.089 35.913-14.933 54.4-2.844 18.49-4.267 36.979-4.267 55.467 0 91.023 32.356 168.89 97.067 233.6 64.71 64.713 142.577 97.068 233.6 97.068h61.867l-76.8 76.8c-4.267 4.267-6.223 9.422-5.867 15.467s2.667 11.556 6.933 16.533c4.267 4.267 9.6 6.4 16 6.4s11.733-2.133 16-6.4l109.867-110.933c2.844-3.556 4.977-6.933 6.4-10.133s2.133-6.933 2.133-11.2c0-4.267-0.71-8.178-2.133-11.734-1.423-3.554-3.556-6.754-6.4-9.6l-109.867-109.867c-4.267-4.267-9.6-6.4-16-6.4s-12.090 2.133-17.067 6.4c-4.267 4.267-6.4 9.6-6.4 16s2.133 12.090 6.4 17.067l74.667 73.6h-59.733c-77.51 0-144-27.733-199.467-83.2s-83.2-121.954-83.2-199.467c0-16.354 1.423-32.533 4.267-48.533s6.756-31.465 11.733-46.398c0.71-3.556 0.533-7.469-0.533-11.735s-3.023-7.821-5.867-10.667c-7.11-7.11-14.577-9.954-22.4-8.533-7.822 1.423-13.156 6.756-16 16zM492.8 9.602l-109.867 109.865c-2.844 2.846-5.156 6.046-6.933 9.6-1.777 3.556-2.667 7.467-2.667 11.733s0.89 8.179 2.667 11.735c1.777 3.554 4.090 6.754 6.933 9.598l109.867 110.933c4.977 4.267 10.49 6.4 16.533 6.4s11.2-2.133 15.467-6.4c4.267-4.977 6.4-10.487 6.4-16.531 0-6.046-2.133-11.202-6.4-15.469l-75.733-75.733h62.933c77.51 0 144 27.556 199.467 82.667 55.467 55.113 83.2 121.779 83.2 200 0 16.356-1.244 32.713-3.733 49.067-2.49 16.356-6.577 32-12.267 46.933-0.71 3.556-0.71 7.29 0 11.2 0.71 3.913 2.49 7.29 5.333 10.133 7.11 7.113 14.577 9.956 22.4 8.533 7.823-1.421 13.51-6.754 17.067-16 6.4-17.777 11.2-35.91 14.4-54.4 3.2-18.487 4.8-36.977 4.8-55.467 0-91.021-32.356-169.065-97.067-234.131s-142.577-97.6-233.6-97.6h-62.933l75.733-75.733c4.267-4.267 6.4-9.423 6.4-15.469 0-6.044-2.133-11.198-6.4-15.465s-9.423-6.4-15.467-6.4c-6.044 0-11.556 2.133-16.533 6.4z" />
<glyph unicode="&#xe90d;" glyph-name="balance" d="M131.2 83.202c-7.111 0-12.978 2.133-17.6 6.4s-6.933 9.956-6.933 17.067c0 7.11 2.311 12.977 6.933 17.6s10.489 6.933 17.6 6.933h356.267v507.733c-19.2 4.977-36.444 14.933-51.733 29.867s-25.423 32.71-30.4 53.333h-166.4l121.6-298.667c2.844-7.11 4.623-15.11 5.333-24s0.356-15.823-1.067-20.8c-7.11-24.177-22.4-44.090-45.867-59.733s-50.49-23.467-81.067-23.467c-30.578 0-57.778 7.823-81.6 23.467s-39.289 35.556-46.4 59.733c-1.422 4.977-1.6 11.91-0.533 20.8s3.022 16.89 5.867 24l121.6 298.667h-62.933c-7.111 0-12.978 2.31-17.6 6.933s-6.933 10.49-6.933 17.6c0 7.111 2.311 12.8 6.933 17.067s10.489 6.4 17.6 6.4h231.467c6.4 24.889 19.377 45.333 38.933 61.333s42.133 24 67.733 24c25.6 0 48.177-8 67.733-24s32.533-36.445 38.933-61.333h231.467c7.11 0 12.977-2.133 17.6-6.4s6.933-9.956 6.933-17.067c0-7.11-2.31-12.977-6.933-17.6s-10.49-6.933-17.6-6.933h-61.867l120.533-298.667c2.844-7.11 4.8-15.11 5.867-24s0.89-15.823-0.533-20.8c-7.11-24.177-22.577-44.090-46.4-59.733s-51.023-23.467-81.6-23.467c-30.577 0-57.6 7.823-81.067 23.467s-38.756 35.556-45.867 59.733c-1.423 4.977-1.777 11.91-1.067 20.8s2.49 16.89 5.333 24l121.6 298.667h-166.4c-4.977-20.623-15.11-38.4-30.4-53.333s-32.533-24.89-51.733-29.867v-507.733h356.267c7.11 0 12.977-2.31 17.6-6.933s6.933-10.49 6.933-17.6c0-7.11-2.31-12.8-6.933-17.067s-10.49-6.4-17.6-6.4h-761.6zM704 405.335h165.333l-83.2 209.067-82.133-209.067zM154.667 405.335h165.333l-82.133 209.067-83.2-209.067zM512 684.802c17.067 0 31.467 6.223 43.2 18.667s17.6 26.844 17.6 43.2c0 17.067-5.867 31.467-17.6 43.2s-26.133 17.6-43.2 17.6c-16.356 0-30.577-5.867-42.667-17.6s-18.133-26.133-18.133-43.2c0-16.356 6.044-30.756 18.133-43.2s26.31-18.667 42.667-18.667z" />
<glyph unicode="&#xe90e;" glyph-name="bedroom_baby" d="M508.785 563.689c85.747 0 155.49 69.743 155.49 155.488s-69.743 155.49-155.49 155.49c-85.745 0-155.488-69.744-155.488-155.49s69.769-155.488 155.488-155.488zM391.3 719.153c0 64.792 52.719 117.51 117.51 117.51 64.789 0 117.508-52.719 117.508-117.51s-52.719-117.508-117.508-117.508c-64.791 0-117.51 52.717-117.51 117.508zM792.86 610.786c-2.763 17.357-13.263 32.93-30.383 45.003-27.883 19.644-59.552 16.574-84.674-8.309-6.643-6.549-11.215-14.144-15.334-20.979-1.549-2.571-3.095-5.167-4.738-7.595-36.742-54.268-85.199-87.247-136.465-92.913-48.241-5.286-96.032 13.001-138.415 52.981-14.669 13.809-26.861 30.383-41.291 50.622-39.479 55.292-80.459 38.076-96.222 28.122-17.167-10.833-27.883-25.931-31.051-43.669-3.476-19.503 2.692-40.194 17.811-59.887 15.763-20.501 33.385-39.55 50.98-58.551 11.407-12.311 23.194-25.026 34.052-37.86 8.523-10.050 11.81-18.455 12-22.598 2.786-55.908 2.976-112.271 2.857-155.108-0.023-8.047-2.547-14.906-3.857-16.286-36.265-34.193-53.408-78.722-53.956-140.275v-1.261c0.239-3.81 0.333-7.644 0.429-11.477v-1.143c0.286-10.167 0.548-20.644 2.667-31.479 7.501-38.217 32.075-58.79 67.697-56.527 19.714 1.214 53.647 10.667 59.362 60.361 0.452 3.93 0.762 7.883 1.071 11.836 0.548 7.166 1.047 13.954 2.594 19.81 6.144 23.337 14.287 27.622 49.481 27.337 23.051-0.166 44.766 0.096 68.126 0.405l24.049 0.286c32.169 0.286 35.526-5.406 41.289-18.788 3.977-9.216 5.359-20.811 6.859-33.242l1.094-8.785c4.954-37.075 25.717-57.6 60.053-59.362 1.406-0.073 2.81-0.119 4.19-0.119 33.67 0 57.387 21.263 61.862 55.505 7.716 58.647 8.358 126.106-45.169 181.847-3.477 3.62-6.524 11.002-6.524 15.787-0.049 57.719 0.595 106.129 3.881 154.705 0.572 8.499 6.477 20.525 15.81 32.169 11.93 14.906 25.003 29.645 37.694 44.004 16.691 18.835 33.956 38.336 49.527 59.147 10.812 14.359 15.168 30.359 12.644 46.291zM315.821 85.67c-1.502 7.618-1.715 16.073-1.929 25.216-0.096 4.429-0.215 8.834-0.452 12.691 0.499 50.528 13.333 84.96 41.621 111.605 3.238 3.046 6.048 6.81 8.382 11.262 57.696-9.549 61.53-13.596 62.052-68.267-21.406-3.691-44.979-14.739-55.479-54.577-2.453-9.31-3.145-18.596-3.763-26.882-0.262-3.405-0.499-6.835-0.905-10.24-2.357-20.454-10.121-24.907-22.739-25.692-10.882-0.691-22.050 0.715-26.788 24.883zM739.831 623.691c8.262-5.833 13.193-12.405 14.24-19.025 0.858-5.357-0.858-10.786-5.239-16.621-14.69-19.62-31.36-38.455-47.646-56.815-12.907-14.596-26.289-29.692-38.814-45.312-8.429-10.526-22.835-31.55-24.335-54.052-1.596-23.55-2.643-47.908-3.262-76.079h-263.927c-0.452 29.67-1.286 56.363-2.524 81.342-0.977 19.358-13.739 37.146-21.263 46.050-11.667 13.741-24.335 27.43-35.575 39.575-16.501 17.811-33.551 36.241-48.265 55.386-8.215 10.692-11.763 20.74-10.287 29.050 1.476 8.286 8.073 14.001 13.382 17.359 6.833 4.333 21.073 13.359 43.287-17.739 12.335-17.289 27.693-38.814 46.315-56.363 50.266-47.433 110.485-69.911 169.658-63.458 62.91 6.929 121.391 45.98 164.704 109.937 2.048 3.025 3.953 6.191 5.905 9.455 3.142 5.19 6.071 10.071 9.239 13.19 11.571 11.454 22.191 12.717 34.406 4.119zM640.467 248.183c2.976-6.477 6.737-12.169 11.072-16.691 41.907-43.622 41.385-97.651 34.549-149.538-2.618-19.977-15.644-21.643-25.097-21.286-12.907 0.666-20.431 4.905-23.145 25.263l-1.047 8.454c-1.762 14.524-3.573 29.525-9.788 43.955-10.81 25.099-27.334 37.766-54.528 41.361-1.333 51.838 0.858 52.932 67.983 68.482z" />
<glyph unicode="&#xe90f;" glyph-name="calendar_month" d="M512 359.467c-10.667 0-19.556 3.733-26.667 11.2s-10.667 16.177-10.667 26.133c0 10.667 3.556 19.733 10.667 27.2s16 11.2 26.667 11.2c10.667 0 19.556-3.733 26.667-11.2s10.667-16.533 10.667-27.2c0-9.956-3.556-18.667-10.667-26.133s-16-11.2-26.667-11.2zM341.333 359.467c-10.667 0-19.556 3.733-26.667 11.2s-10.667 16.177-10.667 26.133c0 10.667 3.556 19.733 10.667 27.2s16 11.2 26.667 11.2c10.667 0 19.556-3.733 26.667-11.2s10.667-16.533 10.667-27.2c0-9.956-3.556-18.667-10.667-26.133s-16-11.2-26.667-11.2zM682.667 359.467c-10.667 0-19.556 3.733-26.667 11.2s-10.667 16.177-10.667 26.133c0 10.667 3.556 19.733 10.667 27.2s16 11.2 26.667 11.2c10.667 0 19.556-3.733 26.667-11.2s10.667-16.533 10.667-27.2c0-9.956-3.556-18.667-10.667-26.133s-16-11.2-26.667-11.2zM512 192c-10.667 0-19.556 3.733-26.667 11.2s-10.667 16.177-10.667 26.133c0 10.667 3.556 19.733 10.667 27.2s16 11.2 26.667 11.2c10.667 0 19.556-3.733 26.667-11.2s10.667-16.533 10.667-27.2c0-9.956-3.556-18.667-10.667-26.133s-16-11.2-26.667-11.2zM341.333 192c-10.667 0-19.556 3.733-26.667 11.2s-10.667 16.177-10.667 26.133c0 10.667 3.556 19.733 10.667 27.2s16 11.2 26.667 11.2c10.667 0 19.556-3.733 26.667-11.2s10.667-16.533 10.667-27.2c0-9.956-3.556-18.667-10.667-26.133s-16-11.2-26.667-11.2zM682.667 192c-10.667 0-19.556 3.733-26.667 11.2s-10.667 16.177-10.667 26.133c0 10.667 3.556 19.733 10.667 27.2s16 11.2 26.667 11.2c10.667 0 19.556-3.733 26.667-11.2s10.667-16.533 10.667-27.2c0-9.956-3.556-18.667-10.667-26.133s-16-11.2-26.667-11.2zM211.2 42.667c-17.067 0-31.644 6.044-43.733 18.133s-18.133 26.667-18.133 43.733v617.6c0 16.356 6.044 30.756 18.133 43.2s26.667 18.667 43.733 18.667h78.933v48c0 7.111 2.49 13.333 7.467 18.667s11.023 8 18.133 8c7.823 0 14.4-2.667 19.733-8s8-11.556 8-18.667v-48h339.2v48c0 7.822 2.31 14.222 6.933 19.2s10.844 7.467 18.667 7.467c7.11 0 13.333-2.489 18.667-7.467s8-11.378 8-19.2v-48h77.867c17.067 0 31.644-6.222 43.733-18.667s18.133-26.844 18.133-43.2v-617.6c0-17.067-6.044-31.644-18.133-43.733s-26.667-18.133-43.733-18.133h-601.6zM211.2 90.667h601.6c4.267 0 7.644 1.244 10.133 3.733s3.733 5.867 3.733 10.133v423.467h-629.333v-423.467c0-4.267 1.244-7.644 3.733-10.133s5.867-3.733 10.133-3.733z" />
<glyph unicode="&#xe910;" glyph-name="call" d="M826.667 87.467c-79.644 0-159.644 20.444-240 61.333-80.354 40.89-152.887 93.69-217.6 158.4-64.71 64.71-117.333 137.067-157.866 217.067s-60.8 159.823-60.8 239.467c0 12.8 4.444 23.822 13.333 33.067s20.089 13.867 33.6 13.867h121.599c11.379 0 20.979-3.556 28.8-10.667 7.823-7.111 13.156-16.711 16-28.8l25.6-114.133c1.423-10.667 1.067-20.267-1.067-28.8s-6.4-15.644-12.8-21.333l-100.267-98.133c40.533-68.267 85.867-127.11 136-176.533s107.556-91.91 172.267-127.467l96 100.267c7.113 7.823 15.113 13.333 24 16.533 8.89 3.2 18.313 3.733 28.267 1.6l103.469-23.467c11.377-2.133 20.621-7.467 27.733-16 7.11-8.533 10.667-18.844 10.667-30.933v-117.333c0-13.51-4.446-24.89-13.333-34.133-8.89-9.244-20.090-13.867-33.602-13.867z" />
<glyph unicode="&#xe911;" glyph-name="cancel" d="M337.067 273.067c4.977-5.69 10.49-8.533 16.533-8.533s11.91 2.844 17.6 8.533l140.8 140.8 141.867-141.867c4.977-4.977 10.667-7.29 17.067-6.933s11.733 3.023 16 8c5.69 4.977 8.533 10.49 8.533 16.533s-2.844 11.91-8.533 17.6l-140.8 140.8 141.867 141.867c4.977 4.977 7.29 10.667 6.933 17.067s-3.023 11.733-8 16c-4.977 5.69-10.49 8.533-16.533 8.533s-11.91-2.844-17.6-8.533l-140.8-140.8-141.867 141.867c-4.977 4.977-10.667 7.29-17.067 6.933s-11.733-3.023-16-8c-5.69-4.977-8.533-10.49-8.533-16.533s2.844-11.91 8.533-17.6l140.8-140.8-141.867-141.867c-4.977-4.977-7.29-10.667-6.933-17.067s3.023-11.733 8-16zM512 42.667c-56.89 0-110.044 10.31-159.467 30.933s-92.444 49.244-129.067 85.867c-36.622 36.623-65.244 79.644-85.867 129.067s-30.933 102.577-30.933 159.467c0 56.89 10.311 109.867 30.933 158.933s49.244 91.91 85.867 128.533c36.623 36.622 79.644 65.422 129.067 86.4s102.577 31.467 159.467 31.467c56.89 0 109.867-10.489 158.933-31.467s91.91-49.778 128.533-86.4c36.623-36.623 65.423-79.467 86.4-128.533s31.467-102.044 31.467-158.933c0-56.89-10.49-110.044-31.467-159.467s-49.777-92.444-86.4-129.067c-36.623-36.623-79.467-65.244-128.533-85.867s-102.044-30.933-158.933-30.933z" />
<glyph unicode="&#xe912;" glyph-name="chat" d="M291.2 372.267h266.667c6.4 0 11.91 2.31 16.533 6.933s6.933 10.49 6.933 17.6c0 7.11-2.31 12.977-6.933 17.6s-10.49 6.933-17.6 6.933h-266.667c-6.4 0-11.91-2.31-16.533-6.933s-6.933-10.49-6.933-17.6c0-7.11 2.31-12.977 6.933-17.6s10.49-6.933 17.6-6.933zM291.2 508.8h442.667c6.4 0 11.91 2.133 16.533 6.4s6.933 9.956 6.933 17.067c0 7.11-2.31 12.977-6.933 17.6s-10.49 6.933-17.6 6.933h-442.667c-6.4 0-11.91-2.31-16.533-6.933s-6.933-10.49-6.933-17.6c0-7.11 2.31-12.8 6.933-17.067s10.49-6.4 17.6-6.4zM291.2 644.267h442.667c6.4 0 11.91 2.31 16.533 6.933s6.933 10.49 6.933 17.6c0 7.11-2.31 12.8-6.933 17.067s-10.49 6.4-17.6 6.4h-442.667c-6.4 0-11.91-2.31-16.533-6.933s-6.933-10.133-6.933-16.533c0-7.11 2.31-12.977 6.933-17.6s10.49-6.933 17.6-6.933zM106.667 136.533v654.933c0 16.356 6.044 30.756 18.133 43.2s26.667 18.667 43.733 18.667h686.933c16.356 0 30.756-6.222 43.2-18.667s18.667-26.844 18.667-43.2v-516.267c0-16.356-6.223-30.756-18.667-43.2s-26.844-18.667-43.2-18.667h-597.333l-99.2-98.133c-9.956-9.956-21.156-12.267-33.6-6.933s-18.667 14.756-18.667 28.267z" />
<glyph unicode="&#xe913;" glyph-name="check_box_outline_blank" d="M211.2 85.333c-17.067 0-31.644 6.044-43.733 18.133s-18.133 26.667-18.133 43.733v601.6c0 17.067 6.044 31.644 18.133 43.733s26.667 18.133 43.733 18.133h601.6c17.067 0 31.644-6.044 43.733-18.133s18.133-26.667 18.133-43.733v-601.6c0-17.067-6.044-31.644-18.133-43.733s-26.667-18.133-43.733-18.133h-601.6zM211.2 133.333h601.6c3.556 0 6.756 1.423 9.6 4.267s4.267 6.044 4.267 9.6v601.6c0 3.556-1.423 6.756-4.267 9.6s-6.044 4.267-9.6 4.267h-601.6c-3.556 0-6.756-1.422-9.6-4.267s-4.267-6.044-4.267-9.6v-601.6c0-3.556 1.422-6.756 4.267-9.6s6.044-4.267 9.6-4.267z" />
<glyph unicode="&#xe914;" glyph-name="check_box" d="M211.2 85.333c-17.067 0-31.644 6.044-43.733 18.133s-18.133 26.667-18.133 43.733v601.6c0 17.067 6.044 31.644 18.133 43.733s26.667 18.133 43.733 18.133h601.6c17.067 0 31.644-6.044 43.733-18.133s18.133-26.667 18.133-43.733v-601.6c0-17.067-6.044-31.644-18.133-43.733s-26.667-18.133-43.733-18.133h-601.6zM449.067 302.933c3.556 0 7.29 0.71 11.2 2.133s6.933 3.91 9.067 7.467l254.933 254.933c4.267 4.267 6.4 9.6 6.4 16s-2.133 12.444-6.4 18.133c-5.69 4.267-11.733 6.4-18.133 6.4s-12.090-2.49-17.067-7.467l-240-240-109.867 108.8c-4.267 4.267-9.6 6.4-16 6.4s-12.090-2.133-17.067-6.4c-4.977-4.977-7.467-11.023-7.467-18.133s2.49-12.8 7.467-17.067l120.533-121.6c3.556-3.556 7.11-6.044 10.667-7.467s7.467-2.133 11.733-2.133z" />
<glyph unicode="&#xe915;" glyph-name="check_circle" d="M449.067 341.333l-108.8 108.8c-4.267 4.977-9.956 7.467-17.067 7.467s-13.156-2.49-18.133-7.467c-5.69-5.69-8.533-12.090-8.533-19.2s2.49-13.156 7.467-18.133l123.733-122.667c5.69-6.4 12.8-9.6 21.333-9.6s15.644 3.2 21.333 9.6l248.533 247.467c4.977 4.977 7.467 11.023 7.467 18.133s-2.844 13.156-8.533 18.133c-4.977 4.977-11.023 7.467-18.133 7.467s-13.51-2.49-19.2-7.467l-231.467-232.533zM512 42.667c-56.89 0-110.044 10.31-159.467 30.933s-92.444 49.244-129.067 85.867c-36.622 36.623-65.244 79.644-85.867 129.067s-30.933 102.577-30.933 159.467c0 56.177 10.311 108.977 30.933 158.4s49.244 92.444 85.867 129.067c36.623 36.622 79.644 65.422 129.067 86.4s102.577 31.467 159.467 31.467c56.177 0 108.977-10.489 158.4-31.467s92.444-49.778 129.067-86.4c36.623-36.623 65.423-79.467 86.4-128.533s31.467-102.044 31.467-158.933c0-56.89-10.49-110.044-31.467-159.467s-49.777-92.444-86.4-129.067c-36.623-36.623-79.467-65.244-128.533-85.867s-102.044-30.933-158.933-30.933z" />
<glyph unicode="&#xe916;" glyph-name="check" d="M404.265 223.998c-4.267 0-8 0.71-11.2 2.133s-6.577 3.91-10.133 7.467l-185.6 184.533c-4.978 4.977-7.467 10.844-7.467 17.6s2.489 12.623 7.467 17.6c4.978 4.977 10.667 7.467 17.067 7.467s12.090-2.49 17.067-7.467l172.8-172.8 387.2 388.267c4.977 4.267 10.844 6.4 17.6 6.4s12.623-2.133 17.6-6.4c4.977-5.69 7.467-11.733 7.467-18.133s-2.49-12.090-7.467-17.067l-401.067-400c-2.844-3.556-6.044-6.044-9.6-7.467s-7.467-2.133-11.733-2.133z" />
<glyph unicode="&#xe917;" glyph-name="close" d="M511.998 413.869l-227.2-227.2c-4.977-4.977-10.667-7.467-17.067-7.467s-12.090 2.49-17.067 7.467c-4.977 4.977-7.467 10.667-7.467 17.067s2.49 12.090 7.467 17.067l227.2 227.2-227.2 227.2c-4.977 4.977-7.467 10.667-7.467 17.067s2.49 12.090 7.467 17.067c4.977 4.977 10.667 7.467 17.067 7.467s12.090-2.49 17.067-7.467l227.2-227.2 227.2 227.2c4.977 4.977 10.667 7.467 17.067 7.467s12.090-2.49 17.067-7.467c4.977-4.977 7.467-10.667 7.467-17.067s-2.49-12.090-7.467-17.067l-227.2-227.2 227.2-227.2c4.977-4.977 7.467-10.667 7.467-17.067s-2.49-12.090-7.467-17.067c-4.977-4.977-10.667-7.467-17.067-7.467s-12.090 2.49-17.067 7.467l-227.2 227.2z" />
<glyph unicode="&#xe918;" glyph-name="cottage" d="M830.66 21.335h-638.714c-35.428 0-64.106 28.785-63.946 64.213l1.921 490.037c0.080 20.169 9.684 39.136 25.877 51.142l317.65 235.375c23.343 17.287 55.409 16.673 78.057-1.467l319.117-255.676c15.153-12.139 23.957-30.494 23.957-49.914v-469.711c0-35.349-28.599-64-63.919-64zM251.251 72.45h520.371c35.934 0 65.067 29.131 65.067 65.067v382.315c0 19.742-8.964 38.443-24.384 50.793l-261.626 209.606c-23.076 18.487-55.676 19.101-79.42 1.494l-257.171-190.558c-16.486-12.218-26.25-31.505-26.33-52.021l-1.574-401.361c-0.16-36.043 29.024-65.333 65.067-65.333zM706.419 478.56h-123.383v123.383h-144.299v-123.383h-123.383v-144.299h123.383v-123.383h144.299v123.383h123.383v144.299z" />
<glyph unicode="&#xe919;" glyph-name="credit_card" d="M168.533 128c-17.067 0-31.644 6.044-43.733 18.133s-18.133 26.667-18.133 43.733v516.267c0 17.067 6.044 31.644 18.133 43.733s26.667 18.133 43.733 18.133h686.933c17.067 0 31.644-6.044 43.733-18.133s18.133-26.667 18.133-43.733v-516.267c0-17.067-6.044-31.644-18.133-43.733s-26.667-18.133-43.733-18.133h-686.933zM154.667 482.133h714.667v112h-714.667v-112z" />
<glyph unicode="&#xe91a;" glyph-name="delete" d="M296.533 85.333c-16.356 0-30.577 6.044-42.667 18.133s-18.133 26.667-18.133 43.733v580.267h-19.2c-7.111 0-12.978 2.31-17.6 6.933s-6.933 10.49-6.933 17.6c0 7.111 2.311 12.8 6.933 17.067s10.489 6.4 17.6 6.4h157.867c0 9.244 3.023 16.533 9.067 21.867s13.333 8 21.867 8h213.333c8.533 0 15.823-2.844 21.867-8.533s9.067-12.8 9.067-21.333h157.867c7.11 0 12.977-2.311 17.6-6.933s6.933-10.489 6.933-17.6c0-6.4-2.31-11.91-6.933-16.533s-10.49-6.933-17.6-6.933h-19.2v-580.267c0-17.067-6.044-31.644-18.133-43.733s-26.31-18.133-42.667-18.133h-430.933zM406.4 248.533c0-7.11 2.31-12.977 6.933-17.6s10.49-6.933 17.6-6.933c7.11 0 12.977 2.31 17.6 6.933s6.933 10.49 6.933 17.6v365.867c0 6.4-2.49 11.91-7.467 16.533s-10.667 6.933-17.067 6.933c-7.11 0-12.977-2.31-17.6-6.933s-6.933-10.133-6.933-16.533v-365.867zM568.533 248.533c0-7.11 2.49-12.977 7.467-17.6s10.667-6.933 17.067-6.933c7.11 0 12.977 2.31 17.6 6.933s6.933 10.49 6.933 17.6v365.867c0 6.4-2.31 11.91-6.933 16.533s-10.49 6.933-17.6 6.933c-7.11 0-12.977-2.31-17.6-6.933s-6.933-10.133-6.933-16.533v-365.867z" />
<glyph unicode="&#xe91b;" glyph-name="devices" d="M196.267 205.869v501.331c0 17.067 6.044 31.646 18.133 43.734s26.667 18.133 43.733 18.133h606.933c7.11 0 12.977-2.311 17.6-6.933s6.933-10.489 6.933-17.601c0-7.11-2.31-12.977-6.933-17.6-4.623-4.621-10.49-6.933-17.6-6.933h-606.933c-4.267 0-7.644-1.244-10.133-3.733-2.49-2.487-3.733-5.51-3.733-9.067v-501.331h204.8c9.956 0 18.49-3.556 25.6-10.667 7.11-7.113 10.667-15.646 10.667-25.6 0-10.667-3.556-19.379-10.667-26.135-7.11-6.754-15.644-10.133-25.6-10.133h-306.133c-9.956 0-18.489 3.556-25.6 10.667-7.111 7.113-10.667 15.646-10.667 25.602 0 9.954 3.556 18.487 10.667 25.6 7.111 7.11 15.644 10.667 25.6 10.667h53.333zM625.067 133.333c-9.956 0-18.667 3.735-26.133 11.202s-11.2 17.244-11.2 29.333v423.465c0 9.956 3.733 18.667 11.2 26.133s16.177 11.2 26.133 11.2h247.467c12.8 0 23.467-3.733 32-11.2s12.8-16.177 12.8-26.133v-423.465c0-12.090-4.267-21.867-12.8-29.333s-19.2-11.202-32-11.202h-247.467zM636.8 205.869h232.533v379.731h-232.533v-379.731z" />
<glyph unicode="&#xe91c;" glyph-name="directions_car" d="M208 173.867v-59.733c0-7.823-2.667-14.577-8-20.267s-12.267-8.533-20.8-8.533c-8.533 0-15.644 2.844-21.333 8.533s-8.533 12.8-8.533 21.333v324.267l87.467 261.333c2.844 7.823 7.467 13.867 13.867 18.133s13.867 6.4 22.4 6.4h480c7.823 0 14.756-2.133 20.8-6.4s10.49-10.31 13.333-18.133l87.467-261.333v-325.333c0-7.823-2.844-14.577-8.533-20.267s-12.8-8.533-21.333-8.533c-8.533 0-15.644 3.023-21.333 9.067s-8.533 12.977-8.533 20.8v58.667h-606.933zM216.533 488.533h590.933l-64 188.8h-462.933l-64-188.8zM307.2 279.467c14.933 0 27.2 4.977 36.8 14.933s14.4 22.044 14.4 36.267c0 14.933-4.977 27.377-14.933 37.333s-22.044 14.933-36.267 14.933c-14.223 0-26.49-4.977-36.8-14.933s-15.467-22.4-15.467-37.333c0-14.933 5.156-27.2 15.467-36.8s22.577-14.4 36.8-14.4zM717.867 279.467c14.223 0 26.49 4.977 36.8 14.933s15.467 22.044 15.467 36.267c0 14.933-5.156 27.377-15.467 37.333s-22.577 14.933-36.8 14.933c-14.933 0-27.377-4.977-37.333-14.933s-14.933-22.4-14.933-37.333c0-14.933 5.156-27.2 15.467-36.8s22.577-14.4 36.8-14.4z" />
<glyph unicode="&#xe91d;" glyph-name="diversity_4" d="M530.133 42.667l57.6 52.267c81.777 74.667 136.89 132.090 165.333 172.267s42.667 80.89 42.667 122.133c0 14.933-2.133 28.8-6.4 41.6s-9.956 25.6-17.067 38.4h83.2c17.067 0 31.644-6.044 43.733-18.133s18.133-26.667 18.133-43.733v-333.867c0-9.244-2.844-16.71-8.533-22.4s-13.156-8.533-22.4-8.533h-356.267zM106.667 73.6v333.867c0 17.067 5.867 31.644 17.6 43.733s26.489 18.133 44.267 18.133h83.2c-7.11-12.090-12.8-24.71-17.067-37.867s-6.4-27.2-6.4-42.133c0-42.667 13.333-83.023 40-121.067s83.023-96.177 169.067-174.4l56.533-51.2h-356.267c-9.244 0-16.711 2.844-22.4 8.533s-8.533 13.156-8.533 22.4zM810.667 533.333c-30.577 0-56 10.133-76.267 30.4s-30.4 45.69-30.4 76.267c0 29.867 10.133 55.11 30.4 75.733s45.69 30.933 76.267 30.933c29.867 0 55.11-10.31 75.733-30.933s30.933-45.867 30.933-75.733c0-30.577-10.31-56-30.933-76.267s-45.867-30.4-75.733-30.4zM512 576c-36.267 0-66.667 12.267-91.2 36.8s-36.8 54.933-36.8 91.2c0 35.556 12.267 65.778 36.8 90.667s54.933 37.333 91.2 37.333c35.556 0 65.777-12.444 90.667-37.333s37.333-55.11 37.333-90.667c0-36.267-12.444-66.667-37.333-91.2s-55.11-36.8-90.667-36.8zM276.267 389.333c0-32.71 14.756-68.267 44.267-106.667s88-97.423 175.467-177.067l16-13.867 16 14.933c83.2 76.090 140.623 133.867 172.267 173.333s47.467 75.91 47.467 109.333c0 34.844-11.556 64.177-34.667 88s-51.733 35.733-85.867 35.733c-19.91 0-37.867-4.267-53.867-12.8s-30.756-19.2-44.267-32l-17.067-17.067-18.133 18.133c-13.51 11.377-28.444 21.51-44.8 30.4s-33.777 13.333-52.267 13.333c-34.133 0-62.756-11.91-85.867-35.733s-34.667-53.156-34.667-88zM213.333 533.333c-30.578 0-56 10.133-76.267 30.4s-30.4 45.69-30.4 76.267c0 29.867 10.133 55.11 30.4 75.733s45.689 30.933 76.267 30.933c29.867 0 55.11-10.31 75.733-30.933s30.933-45.867 30.933-75.733c0-30.577-10.31-56-30.933-76.267s-45.867-30.4-75.733-30.4z" />
<glyph unicode="&#xe91e;" glyph-name="download_for_offline" d="M486.4 474.667l-80 78.933c-4.267 4.267-9.6 6.223-16 5.867s-12.090-2.667-17.067-6.933c-4.977-4.977-7.467-10.667-7.467-17.067s2.49-12.090 7.467-17.067l115.2-114.133c5.69-6.4 12.623-9.423 20.8-9.067s15.467 3.377 21.867 9.067l117.333 115.2c3.556 4.267 5.156 9.777 4.8 16.533s-2.31 12.267-5.867 16.533c-4.977 4.977-10.667 7.467-17.067 7.467s-12.090-2.49-17.067-7.467l-78.933-77.867v195.2c0 6.4-2.31 11.91-6.933 16.533s-10.49 6.933-17.6 6.933c-7.11 0-12.8-2.31-17.067-6.933s-6.4-10.49-6.4-17.6v-194.133zM333.867 245.333h357.333c6.4 0 11.91 2.31 16.533 6.933s6.933 10.49 6.933 17.6c0 7.11-2.31 12.8-6.933 17.067s-10.49 6.4-17.6 6.4h-357.333c-6.4 0-11.91-2.31-16.533-6.933s-6.933-10.133-6.933-16.533c0-7.11 2.31-12.977 6.933-17.6s10.49-6.933 17.6-6.933zM512 42.667c-56.89 0-110.044 10.31-159.467 30.933s-92.444 49.244-129.067 85.867c-36.622 36.623-65.244 79.644-85.867 129.067s-30.933 102.577-30.933 159.467c0 56.177 10.311 108.977 30.933 158.4s49.244 92.444 85.867 129.067c36.623 36.622 79.644 65.422 129.067 86.4s102.577 31.467 159.467 31.467c56.177 0 108.977-10.489 158.4-31.467s92.444-49.778 129.067-86.4c36.623-36.623 65.423-79.467 86.4-128.533s31.467-102.044 31.467-158.933c0-56.89-10.49-110.044-31.467-159.467s-49.777-92.444-86.4-129.067c-36.623-36.623-79.467-65.244-128.533-85.867s-102.044-30.933-158.933-30.933z" />
<glyph unicode="&#xe91f;" glyph-name="drive_file_rename_outline" d="M416.002 85.331l113.067 112h324.267c15.644 0 28.977-5.333 40-16s16.533-23.823 16.533-39.467c0-15.644-5.51-28.977-16.533-40s-24.356-16.533-40-16.533h-437.333zM780.802 639.998l-112 110.933 44.8 45.867c9.244 9.245 20.8 13.689 34.667 13.333s25.423-5.155 34.667-14.4l42.667-42.667c9.244-9.244 13.867-20.623 13.867-34.133s-4.623-24.89-13.867-34.133l-44.8-44.8zM145.069 85.331c-8.533 0-15.822 3.023-21.867 9.067s-9.067 13.333-9.067 21.867v68.267c0 4.267 0.711 8 2.133 11.2s3.911 6.577 7.467 10.133l512 510.933 110.933-110.933-512-510.933c-3.556-3.556-7.11-6.044-10.667-7.467s-7.11-2.133-10.667-2.133h-68.267z" />
<glyph unicode="&#xe920;" glyph-name="emergency_home" d="M512 11.731c-7.821 0-15.644 1.602-23.467 4.802-7.821 3.2-14.933 7.644-21.333 13.333l-373.332 373.333c-5.689 6.4-10.133 13.51-13.333 21.333-3.2 7.821-4.8 15.644-4.8 23.467 0 7.821 1.6 15.821 4.8 24 3.2 8.177 7.644 15.11 13.333 20.8l373.332 373.332c6.4 6.4 13.513 11.022 21.333 13.867 7.823 2.844 15.646 4.267 23.467 4.267 7.823 0 15.823-1.422 24-4.267 8.179-2.844 15.113-7.467 20.8-13.867l373.333-373.332c6.4-5.69 11.023-12.623 13.867-20.8 2.846-8.179 4.269-16.179 4.269-24 0-7.823-1.423-15.646-4.269-23.467-2.844-7.823-7.467-14.933-13.867-21.333l-373.333-373.333c-5.687-5.69-12.621-10.133-20.8-13.333-8.177-3.2-16.177-4.802-24-4.802zM480 405.333h64v256h-64v-256zM512 288c8.533 0 16 3.2 22.4 9.6s9.6 13.867 9.6 22.4c0 8.533-3.2 15.998-9.6 22.398s-13.867 9.602-22.4 9.602c-8.533 0-15.998-3.202-22.398-9.602s-9.602-13.865-9.602-22.398c0-8.533 3.202-16 9.602-22.4s13.865-9.6 22.398-9.6z" />
<glyph unicode="&#xe921;" glyph-name="error" d="M514.133 396.8c7.11 0 12.977 2.31 17.6 6.933s6.933 10.49 6.933 17.6v218.667c0 6.4-2.31 11.733-6.933 16s-10.49 6.4-17.6 6.4c-7.11 0-12.8-2.133-17.067-6.4s-6.4-9.956-6.4-17.067v-218.667c0-6.4 2.31-11.91 6.933-16.533s10.133-6.933 16.533-6.933zM512 246.4c8.533 0 15.467 2.667 20.8 8s8 12.267 8 20.8c0 8.533-2.667 15.467-8 20.8s-12.267 8-20.8 8c-8.533 0-15.467-2.667-20.8-8s-8-12.267-8-20.8c0-8.533 2.667-15.467 8-20.8s12.267-8 20.8-8zM512 42.667c-56.89 0-110.044 10.31-159.467 30.933s-92.444 49.244-129.067 85.867c-36.622 36.623-65.244 79.644-85.867 129.067s-30.933 102.577-30.933 159.467c0 56.89 10.311 109.867 30.933 158.933s49.244 91.91 85.867 128.533c36.623 36.622 79.644 65.422 129.067 86.4s102.577 31.467 159.467 31.467c56.89 0 109.867-10.489 158.933-31.467s91.91-49.778 128.533-86.4c36.623-36.623 65.423-79.467 86.4-128.533s31.467-102.044 31.467-158.933c0-56.89-10.49-110.044-31.467-159.467s-49.777-92.444-86.4-129.067c-36.623-36.623-79.467-65.244-128.533-85.867s-102.044-30.933-158.933-30.933z" />
<glyph unicode="&#xe922;" glyph-name="expand_less" d="M890.161 244.826c-6.4-6.4-14.4-9.6-24-9.6s-17.956 3.2-25.067 9.6l-338.133 338.133-338.133-338.133c-6.4-6.4-14.222-9.777-23.467-10.133s-17.422 3.023-24.533 10.133c-6.4 6.4-9.778 14.577-10.133 24.533s2.667 18.133 9.067 24.533l365.866 365.867c3.556 3.556 7.11 6.044 10.667 7.467s7.11 2.133 10.667 2.133c4.267 0 8.177-0.71 11.733-2.133s7.11-3.91 10.667-7.467l365.867-365.867c6.4-6.4 9.6-14.4 9.6-24s-3.556-17.956-10.667-25.067z" />
<glyph unicode="&#xe923;" glyph-name="expand_more" d="M117.333 651.174c6.4 6.4 14.4 9.6 24 9.6s17.956-3.2 25.067-9.6l338.133-338.133 338.133 338.133c6.4 6.4 14.223 9.777 23.467 10.133s17.423-3.023 24.533-10.133c6.4-6.4 9.777-14.577 10.133-24.533s-2.667-18.133-9.067-24.533l-365.867-365.867c-3.556-3.556-7.11-6.044-10.667-7.467s-7.11-2.133-10.667-2.133c-4.267 0-8.177 0.71-11.733 2.133s-7.11 3.91-10.667 7.467l-365.867 365.867c-6.4 6.4-9.6 14.4-9.6 24s3.556 17.956 10.667 25.067z" />
<glyph unicode="&#xe924;" glyph-name="filter_alt" d="M485.335 128c-10.667 0-19.556 3.556-26.667 10.667s-10.667 16-10.667 26.667v247.467l-244.266 310.4c-7.822 9.244-8.889 19.023-3.2 29.333s13.866 15.467 24.533 15.467h573.867c10.667 0 18.844-5.156 24.533-15.467s4.623-20.090-3.2-29.333l-244.267-310.4v-247.467c0-10.667-3.556-19.556-10.667-26.667s-16-10.667-26.667-10.667h-53.333z" />
<glyph unicode="&#xe925;" glyph-name="format_quote" d="M280.533 693.333c12.090 0 21.333-5.156 27.733-15.467s6.756-21.156 1.067-32.533l-57.6-122.667h158.933c12.8 0 24-4.8 33.6-14.4s14.4-20.8 14.4-33.6v-181.333c0-12.8-4.8-24-14.4-33.6s-20.8-14.4-33.6-14.4h-181.333c-12.8 0-24 4.8-33.6 14.4s-14.4 20.8-14.4 33.6v221.867c0 4.267 0.533 8.71 1.6 13.333s2.311 9.067 3.733 13.333l64 133.333c2.133 5.69 5.867 10.133 11.2 13.333s11.556 4.8 18.667 4.8zM664.533 693.333c12.090 0 21.333-5.156 27.733-15.467s6.756-21.156 1.067-32.533l-57.6-122.667h158.933c12.8 0 24-4.8 33.6-14.4s14.4-20.8 14.4-33.6v-181.333c0-12.8-4.8-24-14.4-33.6s-20.8-14.4-33.6-14.4h-181.333c-12.8 0-24 4.8-33.6 14.4s-14.4 20.8-14.4 33.6v221.867c0 4.267 0.533 8.71 1.6 13.333s2.31 9.067 3.733 13.333l64 133.333c2.133 5.69 5.867 10.133 11.2 13.333s11.556 4.8 18.667 4.8z" />
<glyph unicode="&#xe926;" glyph-name="hand" d="M615.467 249.6l-336 97.067v314.667h104.533l266.667-99.2c16.356-5.69 30.223-15.644 41.6-29.867s17.067-35.2 17.067-62.933h-51.2c-32 0-57.067 1.067-75.2 3.2s-35.733 6.044-52.8 11.733l-77.867 26.667-10.667-28.8 83.2-28.8c14.933-4.977 32.71-8.533 53.333-10.667s40.89-3.2 60.8-3.2h204.8c32 0 54.4-7.29 67.2-21.867s19.2-32.89 19.2-54.933v-16l-314.667-97.067zM85.333 289.067v372.267h144v-372.267h-144z" />
<glyph unicode="&#xe927;" glyph-name="handshake" d="M509.867 70.4c-11.377 0-21.154 3.733-29.333 11.2-8.177 7.467-12.265 17.6-12.265 30.4 0 4.977 1.065 10.49 3.198 16.533s5.69 11.2 10.667 15.467l177.067 177.067-21.333 21.333-177.067-177.067c-4.977-4.267-10.133-7.644-15.467-10.133s-11.2-3.733-17.6-3.733c-11.377 0-20.977 3.91-28.8 11.733-7.821 7.823-11.733 17.777-11.733 29.867 0 6.4 1.246 12.444 3.733 18.133 2.49 5.69 5.513 10.31 9.067 13.867l177.067 177.067-21.333 21.333-177.067-177.067c-4.267-4.267-9.244-7.467-14.933-9.6-5.687-2.133-11.733-3.2-18.133-3.2-10.667 0-20.087 4.090-28.267 12.267-8.177 8.177-12.267 17.6-12.267 28.267 0 6.4 1.067 12.267 3.2 17.6s5.69 10.133 10.667 14.4l171.733 172.8-21.333 21.333-171.733-172.8c-3.554-3.556-8.177-6.577-13.867-9.067-5.687-2.49-12.087-3.733-19.2-3.733-11.377 0-20.977 3.91-28.8 11.733-7.821 7.823-11.733 17.423-11.733 28.8 0 5.69 1.246 11.377 3.733 17.067 2.49 5.69 5.867 10.667 10.133 14.933l224 224 107.735-107.733c7.821-7.823 16.531-13.867 26.131-18.133s20.8-6.4 33.6-6.4c21.333 0 39.29 6.756 53.869 20.267 14.577 13.51 21.865 32 21.865 55.467 0 9.956-2.133 19.733-6.4 29.333s-10.667 18.667-19.2 27.2l-151.467 151.467 25.602 26.667c10.667 10.667 23.11 18.667 37.333 24 14.221 5.333 28.087 8 41.598 8 16.356 0 31.823-2.667 46.402-8 14.577-5.333 27.554-13.689 38.933-25.067l181.333-182.4c10.667-10.667 18.844-23.11 24.531-37.333 5.69-14.223 8.535-30.577 8.535-49.067 0-14.223-2.846-28.090-8.535-41.6-5.687-13.51-13.865-25.6-24.531-36.267l-357.335-357.333c-4.977-5.69-10.133-9.423-15.467-11.2s-10.844-2.667-16.533-2.667zM186.668 379.733l-57.6 57.6c-12.089 12.090-21.333 26.133-27.733 42.133s-9.6 32.177-9.6 48.533c0 17.777 3.2 34.133 9.6 49.067s14.222 27.023 23.467 36.267l174.932 174.933c9.956 9.956 21.69 17.956 35.2 24 13.513 6.044 27.379 9.067 41.6 9.067 16.356 0 31.29-2.489 44.8-7.467 13.513-4.978 26.313-13.511 38.4-25.6l198.4-198.4c5.69-5.69 9.779-11.733 12.267-18.133 2.49-6.4 3.733-12.090 3.733-17.067 0-13.51-4.087-24.71-12.267-33.6-8.177-8.89-19.377-13.333-33.598-13.333-6.4 0-12.979 1.6-19.735 4.8-6.754 3.2-12.977 8-18.667 14.4l-129.067 128-274.132-275.2z" />
<glyph unicode="&#xe928;" glyph-name="headset_mic" d="M537.6 12.8c-6.4 0-11.91 2.313-16.533 6.933-4.623 4.623-6.933 10.49-6.933 17.6 0 7.113 2.31 12.979 6.933 17.602 4.623 4.621 10.133 6.933 16.533 6.933h275.2c4.267 0 7.644 1.244 10.133 3.733 2.49 2.487 3.733 5.51 3.733 9.065v49.067h-80c-17.067 0-31.644 6.046-43.733 18.135-12.090 12.087-18.133 26.31-18.133 42.667v159.998c0 17.067 6.044 31.646 18.133 43.735 12.090 12.087 26.667 18.131 43.733 18.131h80v82.133c0 86.756-30.577 161.246-91.733 223.467-61.156 62.223-134.756 93.334-220.8 93.334-86.756 0-161.244-31.111-223.467-93.334-62.223-62.221-93.333-136.71-93.333-223.467v-82.133h80c17.067 0 31.644-6.044 43.733-18.131 12.090-12.090 18.133-26.669 18.133-43.735v-159.998c0-16.356-6.044-30.579-18.133-42.667-12.090-12.090-26.667-18.135-43.733-18.135h-66.133c-17.067 0-31.644 6.046-43.733 18.135-12.089 12.087-18.133 26.31-18.133 42.667v303.998c0 50.49 9.6 97.956 28.8 142.4 19.2 44.446 45.156 83.2 77.867 116.268 32.71 33.067 71.29 59.2 115.733 78.4s91.91 28.8 142.4 28.8c49.777 0 96.71-9.6 140.8-28.8s82.31-45.333 114.667-78.4c32.356-33.068 57.956-71.822 76.8-116.268 18.844-44.444 28.267-91.91 28.267-142.4v-413.867c0-17.067-6.044-31.644-18.133-43.731-12.090-12.090-26.667-18.135-43.733-18.135h-275.2z" />
<glyph unicode="&#xe929;" glyph-name="help" d="M516.267 213.333c9.244 0 17.244 3.377 24 10.133s10.133 15.11 10.133 25.067c0 9.244-3.377 17.244-10.133 24s-14.756 10.133-24 10.133c-9.244 0-17.244-3.377-24-10.133s-10.133-14.756-10.133-24c0-9.956 3.377-18.31 10.133-25.067s14.756-10.133 24-10.133zM515.2 636.8c24.89 0 44.977-6.756 60.267-20.267s22.933-30.933 22.933-52.267c0-14.223-4.090-28.090-12.267-41.6s-21.156-28.090-38.933-43.733c-17.777-16.356-31.823-33.067-42.133-50.133s-15.823-33.067-16.533-48c0-5.69 2.31-10.49 6.933-14.4s9.777-5.867 15.467-5.867c7.11 0 12.8 2.133 17.067 6.4s6.756 9.6 7.467 16c2.133 13.51 6.756 25.777 13.867 36.8s18.49 22.933 34.133 35.733c20.623 18.49 35.556 36.090 44.8 52.8s13.867 35.377 13.867 56c0 34.844-11.377 63.11-34.133 84.8s-52.623 32.533-89.6 32.533c-24.89 0-48.177-5.333-69.867-16s-39.644-25.956-53.867-45.867c-4.267-5.69-6.044-11.733-5.333-18.133s3.556-11.023 8.533-13.867c6.4-4.977 12.977-6.577 19.733-4.8s12.623 5.867 17.6 12.267c9.244 12.090 20.267 22.044 33.067 29.867s28.444 11.733 46.933 11.733zM512 42.667c-56.89 0-109.867 10.31-158.933 30.933s-91.91 49.244-128.533 85.867c-36.622 36.623-65.422 79.644-86.4 129.067s-31.467 102.577-31.467 159.467c0 56.89 10.489 109.867 31.467 158.933s49.778 91.91 86.4 128.533c36.623 36.622 79.467 65.422 128.533 86.4s102.044 31.467 158.933 31.467c56.177 0 108.8-10.489 157.867-31.467s91.91-49.778 128.533-86.4c36.623-36.623 65.6-79.467 86.933-128.533s32-102.044 32-158.933c0-56.89-10.667-110.044-32-159.467s-50.31-92.444-86.933-129.067c-36.623-36.623-79.467-65.244-128.533-85.867s-101.69-30.933-157.867-30.933z" />
<glyph unicode="&#xe92a;" glyph-name="home_health" d="M466.133 359.467v-60.8c0-12.8 4.444-23.644 13.333-32.533 8.89-8.887 19.733-13.333 32.533-13.333s23.644 4.446 32.533 13.333c8.89 8.89 13.333 19.733 13.333 32.533v60.8h60.8c12.8 0 23.644 4.446 32.533 13.333 8.89 8.89 13.333 19.733 13.333 32.533s-4.444 23.646-13.333 32.533c-8.89 8.89-19.733 13.333-32.533 13.333h-60.8v60.8c0 12.8-4.444 23.646-13.333 32.533-8.89 8.89-19.733 13.333-32.533 13.333s-23.644-4.444-32.533-13.333c-8.89-8.887-13.333-19.733-13.333-32.533v-60.8h-60.8c-12.8 0-23.644-4.444-32.533-13.333-8.89-8.887-13.333-19.733-13.333-32.533s4.444-23.644 13.333-32.533c8.89-8.887 19.733-13.333 32.533-13.333h60.8zM253.867 85.333c-17.067 0-31.644 6.046-43.733 18.133-12.089 12.090-18.133 26.669-18.133 43.735v387.198c0 9.956 2.133 19.2 6.4 27.733s10.311 15.646 18.133 21.333l259.2 195.201c9.956 7.822 21.867 11.733 35.733 11.733s26.133-3.911 36.8-11.733l259.2-195.201c7.823-5.687 13.867-12.8 18.133-21.333s6.4-17.777 6.4-27.733v-387.198c0-17.067-6.044-31.646-18.133-43.735-12.090-12.087-26.667-18.133-43.733-18.133h-516.267z" />
<glyph unicode="&#xe92b;" glyph-name="home" d="M240 85.333c-12.8 0-24 4.798-33.6 14.398s-14.4 20.802-14.4 33.602v407.467c0 7.821 1.6 15.11 4.8 21.867 3.2 6.754 8 12.267 14.4 16.533l272 204.799c4.267 3.556 8.89 6.044 13.867 7.467s9.956 2.133 14.933 2.133c5.69 0 10.844-0.711 15.467-2.133s9.067-3.911 13.333-7.467l272-204.799c6.4-4.267 11.2-9.779 14.4-16.533 3.2-6.756 4.8-14.046 4.8-21.867v-407.467c0-12.8-4.8-24.002-14.4-33.602s-20.8-14.398-33.6-14.398h-190.933v285.867h-162.133v-285.867h-190.933z" />
<glyph unicode="&#xe92c;" glyph-name="laptop_chromebook" d="M45.867 142.933c-7.111 0-12.978 2.31-17.6 6.933-4.622 4.621-6.933 10.487-6.933 17.598 0 6.4 2.311 11.913 6.933 16.535s10.489 6.933 17.6 6.933h60.8v559.999c0 12.8 4.8 24 14.4 33.6s20.8 14.4 33.6 14.4h714.667c12.8 0 24-4.8 33.6-14.4s14.4-20.8 14.4-33.6v-559.999h60.8c7.11 0 12.977-2.313 17.6-6.933 4.623-4.623 6.933-10.49 6.933-17.602 0-6.4-2.31-11.91-6.933-16.531-4.623-4.623-10.49-6.933-17.6-6.933h-932.267zM442.667 190.933h140.8c4.977 0 9.244 1.954 12.8 5.865 3.556 3.913 5.333 8.713 5.333 14.402 0 5.687-1.777 10.31-5.333 13.865s-7.823 5.333-12.8 5.333h-140.8c-4.977 0-9.423-1.777-13.333-5.333-3.91-3.554-5.867-8.177-5.867-13.865 0-5.69 1.956-10.49 5.867-14.402 3.91-3.91 8.356-5.865 13.333-5.865zM157.867 279.467h713.6v471.466h-713.6v-471.466z" />
<glyph unicode="&#xe92d;" glyph-name="local_convenience_store" d="M356.269 190.933h87.467c4.979 0 9.246 1.777 12.8 5.333 3.556 3.556 5.333 7.823 5.333 12.8 0 4.267-1.777 8.356-5.333 12.267-3.554 3.91-7.821 5.867-12.8 5.867h-67.2v52.267h69.333c4.267 0 8 1.423 11.2 4.267s4.8 6.4 4.8 10.667v90.667c0 4.267-1.6 7.823-4.8 10.667s-6.933 4.267-11.2 4.267h-87.467c-4.977 0-9.244-1.777-12.8-5.333-3.554-3.556-5.333-7.823-5.333-12.8 0-4.267 1.779-8.177 5.333-11.733 3.556-3.556 7.823-5.333 12.8-5.333h67.2v-50.133h-69.333c-4.267 0-8-1.423-11.2-4.267s-4.8-6.4-4.8-10.667v-93.867c0-4.267 1.6-7.823 4.8-10.667s6.933-4.267 11.2-4.267zM665.602 190.933c4.267 0 8.179 1.777 11.733 5.333 3.556 3.556 5.333 7.467 5.333 11.733v173.867c0 5.69-1.6 10.133-4.8 13.333s-7.287 4.8-12.267 4.8c-4.977 0-9.244-1.777-12.8-5.333-3.554-3.556-5.333-7.823-5.333-12.8v-67.2h-50.133v67.2c0 5.69-1.6 10.133-4.8 13.333s-7.287 4.8-12.267 4.8c-4.977 0-9.244-1.777-12.8-5.333-3.554-3.556-5.333-7.823-5.333-12.8v-87.467c0-4.267 1.423-7.823 4.267-10.667 2.846-2.844 6.4-4.267 10.667-4.267h70.4v-71.467c0-4.267 1.779-8.177 5.333-11.733 3.556-3.556 7.823-5.333 12.8-5.333zM885.335 491.733v-355.2c0-17.067-6.044-31.644-18.133-43.733-12.087-12.090-26.667-18.133-43.733-18.133h-624c-17.067 0-31.644 6.044-43.733 18.133s-18.133 26.667-18.133 43.733v356.267c-19.911 16.356-33.067 36.267-39.467 59.733s-6.044 47.29 1.067 71.467l43.733 139.733c5.689 18.489 15.289 32.711 28.8 42.667s29.511 14.933 48 14.933h580.267c19.2 0 35.733-4.978 49.6-14.933s23.646-23.822 29.333-41.6l45.867-140.8c7.113-24.177 7.29-48.177 0.533-72-6.754-23.823-20.087-43.91-40-60.267zM606.935 515.2c24.89 0 44.623 7.29 59.2 21.867 14.579 14.577 20.8 31.11 18.667 49.6l-28.8 186.667h-119.467v-182.4c0-20.623 6.756-38.4 20.267-53.333 13.513-14.933 30.223-22.4 50.133-22.4zM409.602 515.2c22.046 0 40.533 7.29 55.467 21.867s22.4 32.533 22.4 53.867v182.4h-119.467l-28.8-188.8c-2.133-16.356 3.556-32 17.067-46.933 13.513-14.933 31.29-22.4 53.333-22.4zM216.535 515.2c18.49 0 34.667 6.4 48.533 19.2s21.867 28.444 24 46.933l28.8 192h-107.733c-4.267 0-8-1.067-11.2-3.2s-5.156-5.333-5.867-9.6l-45.867-148.267c-7.822-23.467-4.8-45.51 9.067-66.133s33.956-30.933 60.266-30.933zM806.402 515.2c24.179 0 43.913 9.777 59.2 29.333 15.29 19.556 19.023 42.133 11.2 67.733l-46.933 149.333c-0.71 4.267-2.487 7.289-5.333 9.067-2.844 1.778-6.754 2.667-11.733 2.667h-106.667l27.733-192c2.846-18.49 11.023-34.133 24.533-46.933 13.513-12.8 29.513-19.2 48-19.2z" />
<glyph unicode="&#xe92e;" glyph-name="local_mall" d="M812.8 42.667h-601.6c-17.067 0-31.644 6.044-43.733 18.133s-18.133 26.667-18.133 43.733v524.8c0 16.356 6.044 30.577 18.133 42.667s26.667 18.133 43.733 18.133h116.267c0 51.2 17.244 94.756 51.733 130.667s77.69 53.867 129.6 53.867c50.49 0 94.4-17.956 131.733-53.867s56-79.467 56-130.667h116.267c17.067 0 31.644-6.044 43.733-18.133s18.133-26.31 18.133-42.667v-524.8c0-17.067-6.044-31.644-18.133-43.733s-26.667-18.133-43.733-18.133zM376.533 690.133h270.933c0 38.4-13.156 70.756-39.467 97.067s-58.31 39.467-96 39.467c-37.69 0-69.69-13.156-96-39.467s-39.467-58.667-39.467-97.067zM512 407.467c47.644 0 90.667 17.067 129.067 51.2s57.6 72.533 57.6 115.2c0 5.69-2.31 10.667-6.933 14.933s-10.49 6.4-17.6 6.4c-6.4 0-11.733-2.133-16-6.4s-7.11-9.6-8.533-16c-5.69-33.423-21.51-61.333-47.467-83.733s-56-33.6-90.133-33.6c-34.133 0-64.177 11.2-90.133 33.6s-41.777 50.31-47.467 83.733c-1.423 6.4-4.444 11.733-9.067 16s-10.133 6.4-16.533 6.4c-6.4 0-11.91-2.133-16.533-6.4s-6.933-9.244-6.933-14.933c0-42.667 19.023-81.067 57.067-115.2s81.244-51.2 129.6-51.2z" />
<glyph unicode="&#xe92f;" glyph-name="local_pharmacy" d="M756.531 735.202h-491.051c-52.273 0-94.814-42.541-94.814-94.839v-524.213c0-52.273 42.541-94.814 94.814-94.814h491.051c52.299 0 94.839 42.541 94.839 94.814v524.213c0 52.299-42.541 94.839-94.839 94.839zM802.656 116.149c0-25.412-20.687-46.099-46.125-46.099h-491.051c-25.412 0-46.097 20.687-46.097 46.099v524.213c0 25.438 20.685 46.125 46.097 46.125h491.051c25.438 0 46.125-20.687 46.125-46.125v-524.213zM805.427 874.667h-588.787v-48.742h588.787v48.742zM574.475 554.541h-126.938v-116.134h-116.111v-126.912h116.111v-116.137h126.938v116.137h116.137v126.912h-116.137v116.134z" />
<glyph unicode="&#xe930;" glyph-name="local_shipping" d="M236.8 125.867c-32.712 0-60.623 11.377-83.734 34.133s-34.667 50.844-34.667 84.267h-4.267c-15.644 1.423-28.978 8-40 19.733s-16.533 25.777-16.533 42.133v400c0 17.067 6.044 31.644 18.133 43.733s26.667 18.133 43.733 18.133h533.334c17.067 0 31.644-6.044 43.733-18.133 12.087-12.090 18.133-26.667 18.133-43.733v-105.6h86.398c4.979 0 9.602-1.067 13.869-3.2s7.821-5.333 10.667-9.6l135.465-180.267c1.423-2.844 2.667-5.69 3.733-8.533s1.6-6.044 1.6-9.6v-114.133c0-8.533-2.844-15.823-8.531-21.867-5.69-6.044-13.156-9.067-22.402-9.067h-38.4c0-33.423-11.554-61.51-34.667-84.267-23.11-22.756-51.377-34.133-84.798-34.133-32.713 0-60.446 11.377-83.202 34.133-22.754 22.756-34.131 50.844-34.131 84.267h-305.067c0-33.423-11.556-61.51-34.667-84.267-23.113-22.756-51.023-34.133-83.733-34.133zM236.8 174.933c19.91 0 36.621 6.933 50.133 20.8 13.51 13.867 20.267 30.4 20.267 49.6 0 18.49-6.756 34.667-20.267 48.533-13.513 13.867-30.223 20.8-50.133 20.8-19.2 0-35.557-6.933-49.068-20.8s-20.267-30.044-20.267-48.533c0-19.2 6.756-35.733 20.267-49.6s29.868-20.8 49.068-20.8zM778.667 174.933c19.2 0 35.554 6.933 49.065 20.8 13.513 13.867 20.269 30.4 20.269 49.6 0 18.49-6.756 34.667-20.269 48.533-13.51 13.867-29.865 20.8-49.065 20.8s-35.735-6.933-49.602-20.8c-13.867-13.867-20.798-30.044-20.798-48.533 0-19.2 6.931-35.733 20.798-49.6s30.402-20.8 49.602-20.8zM714.667 382.933h203.731l-126.933 168.533h-76.798v-168.533z" />
<glyph unicode="&#xe931;" glyph-name="location_on" d="M512 466.133c18.49 0 34.31 6.577 47.467 19.733s19.733 28.977 19.733 47.467c0 18.49-6.577 34.31-19.733 47.467s-28.977 19.733-47.467 19.733c-18.49 0-34.31-6.577-47.467-19.733s-19.733-28.977-19.733-47.467c0-18.49 6.577-34.31 19.733-47.467s28.977-19.733 47.467-19.733zM513.067 41.6c-4.977 0-9.423 0.71-13.333 2.133s-7.29 3.556-10.133 6.4c-103.823 91.733-181.156 177.244-232 256.533s-76.267 152-76.267 218.133c0 103.11 33.244 185.423 99.733 246.933s143.467 92.267 230.933 92.267c87.467 0 164.444-30.756 230.933-92.267s99.733-143.823 99.733-246.933c0-66.133-25.423-138.844-76.267-218.133s-128.177-164.8-232-256.533c-2.844-2.844-6.044-4.977-9.6-6.4s-7.467-2.133-11.733-2.133z" />
<glyph unicode="&#xe932;" glyph-name="lock" d="M253.867 42.667c-17.067 0-31.644 6.044-43.733 18.133s-18.133 26.667-18.133 43.733v426.667c0 17.067 6.044 31.644 18.133 43.733s26.667 18.133 43.733 18.133h73.6v97.067c0 51.2 17.956 94.756 53.867 130.667s79.467 53.867 130.667 53.867c51.2 0 94.756-17.956 130.667-53.867s53.867-79.467 53.867-130.667v-97.067h73.6c17.067 0 31.644-6.044 43.733-18.133s18.133-26.667 18.133-43.733v-426.667c0-17.067-6.044-31.644-18.133-43.733s-26.667-18.133-43.733-18.133h-516.267zM512 245.333c19.91 0 36.977 6.933 51.2 20.8s21.333 30.756 21.333 50.667c0 18.49-7.11 35.377-21.333 50.667s-31.29 22.933-51.2 22.933c-19.91 0-36.977-7.644-51.2-22.933s-21.333-32.533-21.333-51.733c0-19.2 7.11-35.733 21.333-49.6s31.29-20.8 51.2-20.8zM376.533 593.067h270.933v97.067c0 37.69-13.156 69.867-39.467 96.533s-58.31 40-96 40c-37.69 0-69.69-13.333-96-40s-39.467-58.844-39.467-96.533v-97.067z" />
<glyph unicode="&#xe933;" glyph-name="Loged" d="M917.333 448c0-223.859-181.474-405.333-405.333-405.333s-405.333 181.474-405.333 405.333c0 223.859 181.474 405.333 405.333 405.333s405.333-181.474 405.333-405.333zM494.569 682.667c-14.933 0-24.96-7.253-30.080-21.76l-142.080-401.92c-3.413-9.387-3.2-16.853 0.64-22.4 4.267-5.547 11.307-8.32 21.12-8.32h29.44c15.787 0 25.813 7.467 30.080 22.4l31.36 94.080h159.36l32-94.72c4.267-14.507 14.293-21.76 30.080-21.76h29.44c9.813 0 16.64 2.773 20.48 8.32 4.267 5.547 4.693 13.013 1.28 22.4l-142.080 401.92c-4.267 14.507-14.293 21.76-30.080 21.76h-40.96zM533.609 533.547l40.32-121.6h-118.4l40.96 121.6c2.133 6.4 4.053 13.653 5.76 21.76s3.627 15.787 5.76 23.040c1.707 8.107 3.84 16.64 6.4 25.6h1.28c1.707-8.96 3.627-17.493 5.76-25.6 1.707-7.253 3.627-14.933 5.76-23.040s4.267-15.36 6.4-21.76z" />
<glyph unicode="&#xe934;" glyph-name="logout" d="M691.2 292.267c-4.979 4.977-7.469 10.844-7.469 17.6s2.49 12.623 7.469 17.6l86.4 85.333h-353.067c-6.4 0-11.913 2.31-16.533 6.933-4.623 4.623-6.933 10.49-6.933 17.6s2.31 12.977 6.933 17.6c4.621 4.623 10.133 6.933 16.533 6.933h352l-87.469 86.4c-4.267 4.977-6.398 10.667-6.398 17.067s2.487 12.090 7.465 17.067c4.979 4.977 10.846 7.467 17.6 7.467 6.756 0 12.269-2.49 16.535-7.467l124.798-123.733c3.556-3.556 6.046-7.11 7.469-10.667 1.421-3.556 2.133-7.467 2.133-11.733s-0.713-8-2.133-11.2c-1.423-3.2-3.913-6.577-7.469-10.133l-123.731-123.733c-4.267-4.267-9.6-6.4-16-6.4s-12.446 2.49-18.133 7.467zM215.467 64c-17.068 0-31.645 6.044-43.734 18.133s-18.133 26.667-18.133 43.733v622.933c0 17.067 6.044 31.644 18.133 43.733s26.667 18.133 43.734 18.133h269.867c7.11 0 12.977-2.311 17.6-6.933 4.621-4.622 6.933-10.489 6.933-17.6s-2.313-12.8-6.933-17.067c-4.623-4.267-10.49-6.4-17.6-6.4h-269.867c-3.556 0-6.757-1.422-9.601-4.267s-4.267-6.044-4.267-9.6v-622.933c0-3.556 1.422-6.756 4.267-9.6s6.045-4.267 9.601-4.267h269.867c7.11 0 12.977-2.31 17.6-6.933 4.621-4.623 6.933-10.133 6.933-16.533 0-7.11-2.313-12.977-6.933-17.6-4.623-4.623-10.49-6.933-17.6-6.933h-269.867z" />
<glyph unicode="&#xe935;" glyph-name="mail" d="M168.533 128c-17.067 0-31.644 6.044-43.733 18.133s-18.133 26.667-18.133 43.733v516.267c0 17.067 6.044 31.644 18.133 43.733s26.667 18.133 43.733 18.133h686.933c17.067 0 31.644-6.044 43.733-18.133s18.133-26.667 18.133-43.733v-516.267c0-17.067-6.044-31.644-18.133-43.733s-26.667-18.133-43.733-18.133h-686.933zM512 448c3.556 0 6.577 0.533 9.067 1.6s5.156 2.31 8 3.733l329.6 216.533c2.844 2.133 4.977 4.977 6.4 8.533s1.777 7.11 1.067 10.667c-0.71 6.4-4.267 11.377-10.667 14.933s-12.444 3.2-18.133-1.067l-325.333-210.133-324.267 210.133c-6.4 4.267-12.622 4.8-18.667 1.6s-9.778-8-11.2-14.4c-0.711-3.556-0.356-7.29 1.067-11.2s3.556-6.933 6.4-9.067l329.6-216.533c2.844-1.423 5.51-2.667 8-3.733s5.51-1.6 9.067-1.6z" />
<glyph unicode="&#xe936;" glyph-name="menu" d="M93.44 170.667c-8.533 0-15.573 2.773-21.12 8.32s-8.32 12.587-8.32 21.12c0 7.68 2.773 14.293 8.32 19.84s12.587 8.32 21.12 8.32h837.12c8.533 0 15.573-2.773 21.12-8.32s8.32-12.587 8.32-21.12c0-8.533-2.773-15.36-8.32-20.48s-12.587-7.68-21.12-7.68h-837.12zM93.44 429.227c-8.533 0-15.573 2.773-21.12 8.32s-8.32 12.587-8.32 21.12c0 8.533 2.773 15.573 8.32 21.12s12.587 8.32 21.12 8.32h837.12c8.533 0 15.573-2.773 21.12-8.32s8.32-12.587 8.32-21.12c0-8.533-2.773-15.573-8.32-21.12s-12.587-8.32-21.12-8.32h-837.12zM93.44 689.067c-8.533 0-15.573 2.773-21.12 8.32s-8.32 12.587-8.32 21.12c0 8.533 2.773 15.36 8.32 20.48s12.587 7.68 21.12 7.68h837.12c8.533 0 15.573-2.773 21.12-8.32s8.32-12.587 8.32-21.12c0-7.68-2.773-14.293-8.32-19.84s-12.587-8.32-21.12-8.32h-837.12z" />
<glyph unicode="&#xe937;" glyph-name="offline_pin" d="M444.8 404.267c6.4-6.4 13.69-9.6 21.867-9.6s15.467 3.2 21.867 9.6l185.6 185.6c4.267 4.267 6.577 10.133 6.933 17.6s-2.31 13.333-8 17.6c-4.977 4.977-11.023 7.644-18.133 8s-13.156-2.31-18.133-8l-170.667-170.667-80 81.067c-4.977 4.977-11.023 7.29-18.133 6.933s-12.8-3.023-17.067-8c-5.69-4.977-8.533-11.023-8.533-18.133s2.844-13.156 8.533-18.133l93.867-93.867zM376.533 245.333h272c6.4 0 11.91 2.31 16.533 6.933s6.933 10.49 6.933 17.6c0 7.11-2.31 12.8-6.933 17.067s-10.49 6.4-17.6 6.4h-272c-6.4 0-11.91-2.31-16.533-6.933s-6.933-10.133-6.933-16.533c0-7.11 2.31-12.977 6.933-17.6s10.49-6.933 17.6-6.933zM512 42.667c-56.89 0-110.044 10.31-159.467 30.933s-92.444 49.244-129.067 85.867c-36.622 36.623-65.244 79.644-85.867 129.067s-30.933 102.577-30.933 159.467c0 56.177 10.311 108.977 30.933 158.4s49.244 92.444 85.867 129.067c36.623 36.622 79.644 65.422 129.067 86.4s102.577 31.467 159.467 31.467c56.177 0 108.977-10.489 158.4-31.467s92.444-49.778 129.067-86.4c36.623-36.623 65.423-79.467 86.4-128.533s31.467-102.044 31.467-158.933c0-56.89-10.49-110.044-31.467-159.467s-49.777-92.444-86.4-129.067c-36.623-36.623-79.467-65.244-128.533-85.867s-102.044-30.933-158.933-30.933z" />
<glyph unicode="&#xe938;" glyph-name="payments" d="M570.667 402.133c29.867 0 55.11 10.31 75.731 30.933 20.623 20.623 30.935 45.867 30.935 75.733s-10.313 55.11-30.935 75.733c-20.621 20.623-45.865 30.933-75.731 30.933s-55.113-10.31-75.733-30.933c-20.623-20.623-30.933-45.867-30.933-75.733s10.31-55.11 30.933-75.733c20.621-20.623 45.867-30.933 75.733-30.933zM258.133 253.867c-16.356 0-30.579 6.223-42.667 18.667-12.090 12.444-18.134 26.844-18.134 43.2v386.133c0 16.356 6.045 30.577 18.134 42.667 12.087 12.089 26.31 18.133 42.667 18.133h625.067c17.067 0 31.644-6.044 43.733-18.133 12.087-12.090 18.131-26.31 18.131-42.667v-386.133c0-16.356-6.044-30.756-18.131-43.2-12.090-12.444-26.667-18.667-43.733-18.667h-625.067zM140.799 136.533c-17.067 0-31.644 6.044-43.733 18.133s-18.133 26.31-18.133 42.667v413.867c0 7.11 2.311 12.977 6.933 17.6s10.489 6.933 17.6 6.933c6.4 0 11.911-2.31 16.533-6.933s6.933-10.49 6.933-17.6v-413.867c0-2.844 1.422-5.69 4.267-8.533s6.044-4.267 9.6-4.267h652.801c7.11 0 12.977-2.31 17.6-6.933 4.621-4.623 6.931-10.49 6.931-17.6s-2.31-12.8-6.931-17.067c-4.623-4.267-10.49-6.4-17.6-6.4h-652.801zM245.333 621.867c25.6 0 47.467 9.067 65.6 27.2s27.2 40 27.2 65.6h-80c-3.556 0-6.579-1.244-9.067-3.733-2.49-2.49-3.733-5.51-3.733-9.067v-80zM897.065 621.867v80c0 3.556-1.421 6.577-4.267 9.067-2.844 2.49-6.044 3.733-9.598 3.733h-78.933c0-25.6 9.065-47.467 27.198-65.6s40-27.2 65.6-27.2zM258.133 302.933h80c0 25.6-9.067 47.467-27.2 65.6s-40 27.2-65.6 27.2v-80c0-3.556 1.244-6.577 3.733-9.067 2.487-2.49 5.51-3.733 9.067-3.733zM804.267 302.933h78.933c3.554 0 6.754 1.244 9.598 3.733 2.846 2.49 4.267 5.51 4.267 9.067v80c-25.6 0-47.467-9.067-65.6-27.2s-27.198-40-27.198-65.6z" />
<glyph unicode="&#xe939;" glyph-name="person" d="M512 461.865c-41.244 0-75.2 13.333-101.867 40s-40 60.623-40 101.867c0 41.244 13.333 75.023 40 101.333s60.623 39.467 101.867 39.467c41.244 0 75.2-13.156 101.867-39.467s40-60.090 40-101.333c0-41.244-13.333-75.2-40-101.867s-60.623-40-101.867-40zM241.067 136.531c-13.51 0-25.067 4.8-34.667 14.4s-14.4 21.156-14.4 34.667v32c0 22.756 6.044 42.667 18.133 59.733s27.733 30.223 46.933 39.467c45.51 19.91 89.067 34.844 130.667 44.8s83.023 14.933 124.267 14.933c41.244 0 82.667-5.156 124.267-15.467s84.8-25.067 129.6-44.267c19.91-9.244 35.91-22.4 48-39.467s18.133-36.977 18.133-59.733v-32c0-13.51-4.8-25.067-14.4-34.667s-21.156-14.4-34.667-14.4h-541.867z" />
<glyph unicode="&#xe93a;" glyph-name="phone_android" d="M449.067 87.467h125.867c4.977 0 9.423 1.777 13.333 5.333s5.867 7.823 5.867 12.8c0 4.977-1.956 9.423-5.867 13.333s-8.356 5.867-13.333 5.867h-125.867c-4.977 0-9.423-1.956-13.333-5.867s-5.867-8.356-5.867-13.333c0-4.977 1.956-9.244 5.867-12.8s8.356-5.333 13.333-5.333zM296.533 0c-17.067 0-31.644 6.044-43.733 18.133s-18.133 26.667-18.133 43.733v772.267c0 17.067 6.044 31.644 18.133 43.733s26.667 18.133 43.733 18.133h430.933c17.067 0 31.644-6.044 43.733-18.133s18.133-26.667 18.133-43.733v-772.267c0-17.067-6.044-31.644-18.133-43.733s-26.667-18.133-43.733-18.133h-430.933zM282.667 211.2h458.667v542.933h-458.667v-542.933z" />
<glyph unicode="&#xe93b;" glyph-name="play_circle" d="M418.133 555.733v-215.467c0-12.8 5.333-22.223 16-28.267s20.977-5.51 30.933 1.6l170.667 108.8c9.244 6.4 13.867 14.933 13.867 25.6s-4.623 19.2-13.867 25.6l-170.667 108.8c-9.956 7.11-20.267 7.644-30.933 1.6s-16-15.467-16-28.267zM512 42.667c-55.467 0-107.91 10.667-157.333 32s-92.444 50.31-129.067 86.933c-36.622 36.623-65.6 79.644-86.933 129.067s-32 101.867-32 157.333c0 55.467 10.667 107.91 32 157.333s50.311 92.444 86.933 129.067c36.623 36.622 79.644 65.6 129.067 86.933s101.867 32 157.333 32c55.467 0 107.91-10.667 157.333-32s92.444-50.311 129.067-86.933c36.623-36.623 65.6-79.644 86.933-129.067s32-101.867 32-157.333c0-55.467-10.667-107.91-32-157.333s-50.31-92.444-86.933-129.067c-36.623-36.623-79.644-65.6-129.067-86.933s-101.867-32-157.333-32z" />
<glyph unicode="&#xe93c;" glyph-name="qr_code" d="M197.333 483.2c-12.8 0-24 4.8-33.6 14.4s-14.4 20.8-14.4 33.6v231.467c0 12.8 4.8 24 14.4 33.6s20.8 14.4 33.6 14.4h231.467c12.8 0 24-4.8 33.6-14.4s14.4-20.8 14.4-33.6v-231.467c0-12.8-4.8-24-14.4-33.6s-20.8-14.4-33.6-14.4h-231.467zM197.333 531.2h231.467v231.467h-231.467v-231.467zM197.333 85.333c-12.8 0-24 4.8-33.6 14.4s-14.4 20.8-14.4 33.6v231.467c0 12.8 4.8 24 14.4 33.6s20.8 14.4 33.6 14.4h231.467c12.8 0 24-4.8 33.6-14.4s14.4-20.8 14.4-33.6v-231.467c0-12.8-4.8-24-14.4-33.6s-20.8-14.4-33.6-14.4h-231.467zM197.333 133.333h231.467v231.467h-231.467v-231.467zM595.2 483.2c-12.8 0-24 4.8-33.6 14.4s-14.4 20.8-14.4 33.6v231.467c0 12.8 4.8 24 14.4 33.6s20.8 14.4 33.6 14.4h231.467c12.8 0 24-4.8 33.6-14.4s14.4-20.8 14.4-33.6v-231.467c0-12.8-4.8-24-14.4-33.6s-20.8-14.4-33.6-14.4h-231.467zM595.2 531.2h231.467v231.467h-231.467v-231.467zM808.533 85.333c-4.267 0-8 1.6-11.2 4.8s-4.8 6.933-4.8 11.2v50.133c0 4.267 1.6 8 4.8 11.2s6.933 4.8 11.2 4.8h50.133c4.267 0 8-1.6 11.2-4.8s4.8-6.933 4.8-11.2v-50.133c0-4.267-1.6-8-4.8-11.2s-6.933-4.8-11.2-4.8h-50.133zM563.2 330.667c-4.977 0-8.89 1.6-11.733 4.8s-4.267 6.933-4.267 11.2v51.2c0 4.267 1.423 7.823 4.267 10.667s6.756 4.267 11.733 4.267h49.067c4.267 0 8-1.423 11.2-4.267s4.8-6.4 4.8-10.667v-51.2c0-4.267-1.6-8-4.8-11.2s-6.933-4.8-11.2-4.8h-49.067zM644.267 249.6c-4.267 0-8 1.423-11.2 4.267s-4.8 6.4-4.8 10.667v50.133c0 4.977 1.6 8.89 4.8 11.733s6.933 4.267 11.2 4.267h51.2c4.267 0 8-1.423 11.2-4.267s4.8-6.756 4.8-11.733v-50.133c0-4.267-1.6-7.823-4.8-10.667s-6.933-4.267-11.2-4.267h-51.2zM563.2 167.467c-4.977 0-8.89 1.423-11.733 4.267s-4.267 6.4-4.267 10.667v51.2c0 4.267 1.423 8 4.267 11.2s6.756 4.8 11.733 4.8h49.067c4.267 0 8-1.6 11.2-4.8s4.8-6.933 4.8-11.2v-51.2c0-4.267-1.6-7.823-4.8-10.667s-6.933-4.267-11.2-4.267h-49.067zM644.267 85.333c-4.267 0-8 1.6-11.2 4.8s-4.8 6.933-4.8 11.2v50.133c0 4.267 1.6 8 4.8 11.2s6.933 4.8 11.2 4.8h51.2c4.267 0 8-1.6 11.2-4.8s4.8-6.933 4.8-11.2v-50.133c0-4.267-1.6-8-4.8-11.2s-6.933-4.8-11.2-4.8h-51.2zM726.4 167.467c-4.267 0-7.823 1.423-10.667 4.267s-4.267 6.4-4.267 10.667v51.2c0 4.267 1.423 8 4.267 11.2s6.4 4.8 10.667 4.8h51.2c4.267 0 7.823-1.6 10.667-4.8s4.267-6.933 4.267-11.2v-51.2c0-4.267-1.423-7.823-4.267-10.667s-6.4-4.267-10.667-4.267h-51.2zM726.4 330.667c-4.267 0-7.823 1.6-10.667 4.8s-4.267 6.933-4.267 11.2v51.2c0 4.267 1.423 7.823 4.267 10.667s6.4 4.267 10.667 4.267h51.2c4.267 0 7.823-1.423 10.667-4.267s4.267-6.4 4.267-10.667v-51.2c0-4.267-1.423-8-4.267-11.2s-6.4-4.8-10.667-4.8h-51.2zM808.533 249.6c-4.267 0-8 1.423-11.2 4.267s-4.8 6.4-4.8 10.667v50.133c0 4.977 1.6 8.89 4.8 11.733s6.933 4.267 11.2 4.267h50.133c4.267 0 8-1.423 11.2-4.267s4.8-6.756 4.8-11.733v-50.133c0-4.267-1.6-7.823-4.8-10.667s-6.933-4.267-11.2-4.267h-50.133z" />
<glyph unicode="&#xe93d;" glyph-name="quick_reference_all" d="M704 135.467c34.133 0 62.756 11.556 85.867 34.667s34.667 51.733 34.667 85.867c0 34.133-11.556 62.756-34.667 85.867s-51.733 34.667-85.867 34.667c-34.133 0-62.756-11.556-85.867-34.667s-34.667-51.733-34.667-85.867c0-34.133 11.556-62.756 34.667-85.867s51.733-34.667 85.867-34.667zM938.667 21.333c-4.977-4.977-10.667-7.467-17.067-7.467s-12.090 2.49-17.067 7.467l-99.2 99.2c-14.223-9.956-29.867-18.133-46.933-24.533s-35.2-9.6-54.4-9.6c-46.933 0-86.933 16.533-120 49.6s-49.6 73.067-49.6 120c0 46.933 16.533 86.933 49.6 120s73.067 49.6 120 49.6c46.933 0 86.933-16.533 120-49.6s49.6-73.067 49.6-120c0-19.2-3.2-37.333-9.6-54.4s-14.577-32.71-24.533-46.933l99.2-99.2c4.977-4.977 7.467-10.667 7.467-17.067s-2.49-12.090-7.467-17.067zM211.2 42.667c-17.067 0-31.644 6.044-43.733 18.133s-18.133 26.667-18.133 43.733v686.933c0 17.067 6.044 31.644 18.133 43.733s26.667 18.133 43.733 18.133h344.533c8.533 0 16.71-1.778 24.533-5.333s14.577-7.822 20.267-12.8l170.667-170.667c4.977-5.69 9.244-12.444 12.8-20.267s5.333-16 5.333-24.533v-134.4c-13.51 5.69-27.377 10.133-41.6 13.333s-28.8 4.8-43.733 4.8c-33.423 0-64.356-5.867-92.8-17.6s-53.333-27.91-74.667-48.533h-203.733c-3.556 0-6.756-0.71-9.6-2.133s-5.333-3.2-7.467-5.333c-2.133-2.133-3.91-4.623-5.333-7.467s-2.133-6.044-2.133-9.6c0-7.11 2.31-12.8 6.933-17.067s10.49-6.4 17.6-6.4h162.133c-12.090-19.2-21.333-40-27.733-62.4s-9.956-44.977-10.667-67.733h-123.733c-7.11 0-12.977-2.31-17.6-6.933s-6.933-10.49-6.933-17.6c0-7.11 2.31-12.977 6.933-17.6s10.49-6.933 17.6-6.933h128c7.11-36.977 22.577-70.4 46.4-100.267s53.156-52.267 88-67.2h-384zM557.867 805.333v-151.467c0-8.533 2.844-15.644 8.533-21.333s12.8-8.533 21.333-8.533h153.6l-183.467 181.333z" />
<glyph unicode="&#xe93e;" glyph-name="radio_button_checked" d="M512 266.667c50.49 0 93.333 17.6 128.533 52.8s52.8 78.044 52.8 128.533c0 50.49-17.6 93.333-52.8 128.533s-78.044 52.8-128.533 52.8c-50.49 0-93.333-17.6-128.533-52.8s-52.8-78.044-52.8-128.533c0-50.49 17.6-93.333 52.8-128.533s78.044-52.8 128.533-52.8zM512 42.667c-55.467 0-107.91 10.667-157.333 32s-92.444 50.31-129.067 86.933c-36.622 36.623-65.6 79.644-86.933 129.067s-32 101.867-32 157.333c0 56.177 10.667 108.977 32 158.4s50.311 92.267 86.933 128.533c36.623 36.267 79.644 65.067 129.067 86.4s101.867 32 157.333 32c56.177 0 108.977-10.667 158.4-32s92.267-50.133 128.533-86.4c36.267-36.267 65.067-79.11 86.4-128.533s32-102.223 32-158.4c0-55.467-10.667-107.91-32-157.333s-50.133-92.444-86.4-129.067c-36.267-36.623-79.11-65.6-128.533-86.933s-102.223-32-158.4-32zM512 90.667c99.556 0 184 34.844 253.333 104.533s104 153.956 104 252.8c0 99.556-34.667 184-104 253.333s-153.777 104-253.333 104c-98.844 0-183.11-34.667-252.8-104s-104.533-153.777-104.533-253.333c0-98.844 34.844-183.11 104.533-252.8s153.956-104.533 252.8-104.533z" />
<glyph unicode="&#xe93f;" glyph-name="radio_button_unchecked" d="M512 42.667c-55.467 0-107.91 10.667-157.333 32s-92.444 50.31-129.067 86.933c-36.622 36.623-65.6 79.644-86.933 129.067s-32 101.867-32 157.333c0 56.177 10.667 108.977 32 158.4s50.311 92.267 86.933 128.533c36.623 36.267 79.644 65.067 129.067 86.4s101.867 32 157.333 32c56.177 0 108.977-10.667 158.4-32s92.267-50.133 128.533-86.4c36.267-36.267 65.067-79.11 86.4-128.533s32-102.223 32-158.4c0-55.467-10.667-107.91-32-157.333s-50.133-92.444-86.4-129.067c-36.267-36.623-79.11-65.6-128.533-86.933s-102.223-32-158.4-32zM512 90.667c99.556 0 184 34.844 253.333 104.533s104 153.956 104 252.8c0 99.556-34.667 184-104 253.333s-153.777 104-253.333 104c-98.844 0-183.11-34.667-252.8-104s-104.533-153.777-104.533-253.333c0-98.844 34.844-183.11 104.533-252.8s153.956-104.533 252.8-104.533z" />
<glyph unicode="&#xe940;" glyph-name="remove" d="M248.533 423.465c-7.11 0-12.977 2.31-17.6 6.933s-6.933 10.49-6.933 17.6c0 7.11 2.31 12.977 6.933 17.6s10.49 6.933 17.6 6.933h526.933c7.11 0 12.977-2.31 17.6-6.933s6.933-10.49 6.933-17.6c0-7.11-2.31-12.977-6.933-17.6s-10.49-6.933-17.6-6.933h-526.933z" />
<glyph unicode="&#xe941;" glyph-name="restaurant" d="M929.566 518.266l-13.726 3.701c-0.54 0.154-55.317 15.115-83.746 42.876-20.437 19.972-39.561 76.499-45.216 96.599l-2.982 10.592-10.718 2.466c-36.631 8.457-101.82 29.175-120.738 48.789-59.945 62.052-68.452 134.077-68.529 134.746l-1.749 16.631h-16.708c-178.573 0-328.228-124.593-365.269-290.596-64.494-51.9-88.554-120.017-93.155-218.057-8.508-181.35 132.125-335.812 313.499-344.32 118.502-5.553 225.41 52.619 287.718 144.179 130.172 57.118 221.346 187.159 221.346 338.176v14.217h-0.026zM219.232 238.901c-27.865 1.261-49.381 24.215-48.095 51.255 1.311 27.042 24.96 47.94 52.825 46.656 2.801-0.128 5.5-0.617 8.147-1.182 10.899-21.182 23.804-41.18 38.455-59.74-5.707-22.157-26.889-38.095-51.332-36.99zM392.226 91.535c-18.097 1.387-31.642 17.197-30.255 35.292 1.389 18.097 17.197 31.644 35.294 30.255 18.097-1.387 31.644-17.197 30.255-35.292-1.389-18.097-17.197-31.644-35.294-30.255zM560.442 172.017c-183.098 0-332.060 148.96-332.060 332.060 0 183.098 142.869 325.169 321.572 333.189 6.221-28.224 24.574-86.703 75.778-139.734 27.659-28.634 100.224-49.353 128.55-56.576 7.377-23.52 26.374-77.732 51.9-102.641 25.602-25.011 65.111-40.768 86.035-47.838-7.147-176.826-153.229-318.46-331.776-318.46zM504.019 573.274c31.275 0 56.627 25.355 56.627 56.629s-25.353 56.629-56.627 56.629c-31.275 0-56.629-25.355-56.629-56.629s25.355-56.629 56.629-56.629zM428.467 500.683c-31.258 0-56.629-25.346-56.629-56.629s25.346-56.627 56.629-56.627c31.283 0 56.627 25.344 56.627 56.627s-25.37 56.629-56.627 56.629zM670.586 352.956c20.358 0 36.86 16.501 36.86 36.86s-16.501 36.862-36.86 36.862c-20.358 0-36.862-16.503-36.862-36.862s16.503-36.86 36.862-36.86z" />
<glyph unicode="&#xe942;" glyph-name="savings" d="M682.667 496c10.667 0 19.556 3.556 26.667 10.667s10.667 16 10.667 26.667c0 10.667-3.556 19.556-10.667 26.667s-16 10.667-26.667 10.667c-10.667 0-19.556-3.556-26.667-10.667s-10.667-16-10.667-26.667c0-10.667 3.556-19.556 10.667-26.667s16-10.667 26.667-10.667zM365.867 602.667h164.267c7.11 0 12.977 2.31 17.6 6.933s6.933 10.133 6.933 16.533c0 7.11-2.31 12.977-6.933 17.6s-10.49 6.933-17.6 6.933h-164.267c-7.11 0-12.977-2.31-17.6-6.933s-6.933-10.49-6.933-17.6c0-7.11 2.31-12.8 6.933-17.067s10.49-6.4 17.6-6.4zM259.2 85.333c-14.223 0-27.556 4.8-40 14.4s-20.8 21.156-25.067 34.667c-17.778 62.577-32.356 115.377-43.733 158.4s-20.267 80.177-26.667 111.467c-6.4 31.29-10.844 58.667-13.333 82.133s-3.733 46.223-3.733 68.267c0 59.733 20.622 110.223 61.867 151.467s91.733 61.867 151.467 61.867h224c19.2 25.6 42.667 46.222 70.4 61.867s57.6 23.467 89.6 23.467c12.090 0 22.223-4.089 30.4-12.267s12.267-18.311 12.267-30.4c0-2.844-0.356-5.689-1.067-8.533l-2.133-8.533c-3.556-7.822-6.756-16.711-9.6-26.667s-5.69-22.4-8.533-37.333l112-110.933h49.067c8.533 0 15.823-3.023 21.867-9.067s9.067-13.333 9.067-21.867v-206.933c0-7.11-1.956-13.333-5.867-18.667s-9.067-9.067-15.467-11.2l-94.933-32-56.533-189.867c-4.267-12.8-11.733-23.29-22.4-31.467s-23.11-12.267-37.333-12.267h-89.6c-17.067 0-31.644 6.044-43.733 18.133s-18.133 26.667-18.133 43.733v23.467h-128v-23.467c0-17.067-6.044-31.644-18.133-43.733s-26.667-18.133-43.733-18.133h-84.267z" />
<glyph unicode="&#xe943;" glyph-name="schedule" d="M654.933 268.8c4.267-4.977 9.956-7.467 17.067-7.467s13.156 2.844 18.133 8.533c4.977 4.977 7.467 11.023 7.467 18.133s-2.49 13.156-7.467 18.133l-151.467 151.467v190.933c0 6.4-2.31 11.91-6.933 16.533s-10.49 6.933-17.6 6.933c-7.11 0-12.8-2.31-17.067-6.933s-6.4-10.49-6.4-17.6v-197.333c0-4.267 0.71-8 2.133-11.2s3.556-6.577 6.4-10.133l155.733-160zM512 42.667c-55.467 0-107.91 10.667-157.333 32s-92.444 50.31-129.067 86.933c-36.622 36.623-65.6 79.644-86.933 129.067s-32 101.867-32 157.333c0 55.467 10.667 107.91 32 157.333s50.311 92.444 86.933 129.067c36.623 36.622 79.644 65.6 129.067 86.933s101.867 32 157.333 32c55.467 0 107.91-10.667 157.333-32s92.444-50.311 129.067-86.933c36.623-36.623 65.6-79.644 86.933-129.067s32-101.867 32-157.333c0-55.467-10.667-107.91-32-157.333s-50.31-92.444-86.933-129.067c-36.623-36.623-79.644-65.6-129.067-86.933s-101.867-32-157.333-32z" />
<glyph unicode="&#xe944;" glyph-name="search" d="M849.067 65.067l-280.533 280.535c-21.333-18.49-46.223-32.89-74.667-43.202-28.444-10.31-58.667-15.465-90.667-15.465-76.8 0-141.867 26.667-195.2 80s-80 117.687-80 193.065c0 75.379 26.667 139.733 80 193.068 53.333 53.333 118.044 80 194.133 80 75.377 0 139.556-26.667 192.533-80 52.977-53.334 79.467-117.689 79.467-193.068 0-30.577-4.977-60.087-14.933-88.533-9.956-28.444-24.89-55.11-44.8-80l281.6-279.467-46.933-46.933zM402.133 350.935c57.6 0 106.667 20.444 147.2 61.333 40.533 40.887 60.8 90.131 60.8 147.731s-20.267 106.846-60.8 147.733c-40.533 40.89-89.6 61.334-147.2 61.334-58.31 0-107.91-20.444-148.8-61.334-40.889-40.887-61.333-90.133-61.333-147.733s20.444-106.844 61.333-147.731c40.89-40.89 90.49-61.333 148.8-61.333z" />
<glyph unicode="&#xe945;" glyph-name="self_improvement" d="M637.798 21.331c-31.486 0-62.995-0.028-94.481 0.026-15.174 0.026-19.776 4.574-19.776 19.62-0.051 34.767 0.105 69.536-0.026 104.303-0.026 8.401 1.783 15.305 10.366 18.767 5.197 2.121 3.93 6.825 3.955 10.78 0.102 40.998-0.181 82.022 0.207 123.021 0.491 48.416 21.585 85.847 62.816 110.948 40.324 24.557 81.348 48.002 122.27 71.578 5.971 3.439 8.943 7.962 11.063 14.14 20.034 58.138 40.171 116.247 60.437 174.306 12.977 37.148 55.629 51.418 87.115 29.005 14.914-10.624 22.748-25.696 23.524-43.945 0.284-6.49 2.402-10.677 7.366-15.044 17.372-15.253 25.41-34.485 19.388-57.491-20.499-78.455-41.387-156.832-62.272-235.183-4.834-18.095-17.786-30.426-31.332-42.317-28.77-25.282-57.387-50.718-85.95-76.23-9.617-8.582-13.779-19.906-14.347-32.546-0.284-6.513 0.207-13.079-0.156-19.595-0.335-6.178 0.802-10.65 7.369-13.417 5.376-2.249 6.953-7.78 6.953-13.493 0.026-37.146 0.156-74.293-0.051-111.413-0.051-10.754-5.739-15.691-17.267-15.742-32.39-0.13-64.781-0.051-97.171-0.077zM566.814 243.356c0-26.082-0.026-46.581 0-67.106 0.026-11.684 0.079-11.71 12.098-11.735 34.483-0.028 68.943 0 103.426 0 26.703 0 27.194 0 26.626 26.496-0.57 26.805 10.624 47.202 30.477 64.339 29.907 25.798 59.145 52.373 88.717 78.532 7.859 6.955 12.512 15.458 15.2 25.591 12.64 47.358 25.694 94.637 38.49 141.943 7.678 28.407 15.511 56.766 22.569 85.303 5.325 21.508-10.522 39.241-31.435 35.622-12.073-2.095-20.060-9.41-23.885-21.353-13.805-43.014-27.738-85.978-41.747-128.913-1.655-5.067-1.579-9.591 0.542-14.633 11.917-27.996 3.465-55.989-22.283-72.173-16.853-10.573-34.302-20.213-51.492-30.219-10.005-5.815-19.932-11.866-30.193-17.216-7.936-4.162-15.537-1.939-19.465 4.732-4.137 7.029-2.095 14.965 5.299 20.188 1.679 1.19 3.593 2.121 5.376 3.153 24.454 14.114 49.011 27.996 73.284 42.421 16.337 9.694 20.757 26.366 11.735 41.101-8.22 13.442-25.41 16.802-40.843 7.729-41.515-24.375-83.055-48.676-124.39-73.31-26.391-15.744-41.515-39.473-46.426-69.536-4.162-25.359-0.544-51.029-1.681-70.959zM637.954 50.436c24.971 0 49.941 0.286 74.912-0.154 8.375-0.156 10.729 2.818 10.573 10.831-0.414 21.687-0.309 43.403-0.026 65.090 0.105 6.85-2.172 9.461-9.229 9.436-50.82-0.207-101.666-0.207-152.489 0-7.057 0.026-9.331-2.586-9.229-9.436 0.286-21.687 0.414-43.403-0.026-65.090-0.156-8.013 2.223-10.987 10.573-10.831 24.996 0.439 49.969 0.154 74.94 0.154zM849.406 679.831c-13.079 0-23.808-7.65-28.331-20.446-7.213-20.448-14.347-40.947-21.483-61.421-11.424-32.83-22.799-65.683-34.121-98.564-1.009-2.923-3.102-6.076 0.361-8.945 7.731-6.385 16.649-4.137 19.674 5.169 11.735 36.19 23.859 72.252 34.948 108.623 7.859 25.798 23.757 41.954 50.46 46.814 5.815 1.060 6.436 4.137 5.015 8.945-3.569 12.201-13.675 19.799-26.524 19.825zM380.41 21.359c-31.511 0-63.023-0.051-94.534 0.028-14.5 0.026-19.153 4.73-19.181 19.334-0.051 34.769 0.105 69.562 0 104.331 0 8.35 1.525 15.433 10.159 18.897 2.844 1.137 4.137 3.258 4.085 6.229-0.13 10.108 0.439 20.267-0.595 30.27-1.239 12.305-7.678 21.894-17.137 30.167-31.279 27.401-62.093 55.319-93.087 83.055-11.684 10.445-18.56 23.55-22.541 38.647-19.749 75.017-39.654 149.98-59.688 224.894-6.902 25.85 0.362 46.839 20.783 63.488 3.981 3.258 4.808 7.031 4.989 11.684 1.836 44.333 45.754 69.613 84.426 48.314 12.563-6.929 21.507-17.553 26.29-31.409 20.111-58.135 40.403-116.22 60.358-174.409 2.379-6.901 6.050-11.375 12.512-15.098 42.212-24.324 84.917-47.977 125.967-74.189 36.887-23.55 56.457-59.119 57.645-103.063 1.137-42.473 0.388-84.994 0.284-127.518-0.026-5.79 0.802-10.108 7.006-12.719 5.764-2.43 7.315-8.169 7.343-14.191 0-36.553 0.128-73.131 0-109.681-0.053-11.996-5.378-16.983-17.862-17.035-32.416-0.105-64.806-0.028-97.197-0.028h-0.026zM452.245 238.214h0.079c0 20.215 0.672 40.457-0.156 60.619-1.474 36.527-16.57 65.813-48.39 85.28-11.142 6.825-22.464 13.389-33.734 20.006-30.477 17.941-60.954 35.881-91.433 53.769-10.726 6.308-21.583 6.255-32.002-0.465-10.133-6.541-12.873-16.674-11.631-28.047 1.291-11.684 9.641-17.786 18.948-23.11 24.506-14.010 48.986-28.047 73.387-42.263 9.073-5.299 11.684-13.158 7.522-20.939-4.083-7.627-12.382-9.566-21.611-4.267-26.547 15.226-53.225 30.244-79.307 46.246-26.419 16.235-34.717 44.1-22.645 72.742 1.99 4.704 2.12 8.994 0.569 13.777-13.985 42.963-27.737 85.978-41.825 128.887-5.739 17.449-21.74 26.135-37.638 21.069-14.993-4.783-22.153-20.318-17.397-37.871 20.292-74.861 40.662-149.67 60.825-224.559 2.637-9.796 7.135-18.121 14.735-24.841 25.126-22.231 50.304-44.412 75.172-66.953 12.254-11.115 25.875-20.834 34.639-35.569 10.547-17.681 10.082-36.939 9.487-56.275-0.233-7.703 1.653-11.194 10.34-11.117 40.713 0.388 81.427 0.363 122.14 0.028 8.066-0.053 10.161 3.023 10.031 10.519-0.363 21.12-0.105 42.24-0.105 63.332zM380.668 50.441c25.257 0 50.537 0.258 75.793-0.154 7.962-0.13 10.261 2.714 10.133 10.366-0.388 21.687-0.337 43.401 0 65.090 0.102 7.262-2.225 9.926-9.694 9.899-50.537-0.233-101.075-0.233-151.612 0-7.471 0.028-9.796-2.637-9.694-9.899 0.337-21.69 0.388-43.403 0-65.090-0.128-7.652 2.172-10.522 10.133-10.366 24.973 0.412 49.969 0.154 74.94 0.154zM169.861 679.836c-11.064 0.079-19.594-5.067-24.48-14.707-5.222-10.289-4.291-12.486 6.773-15.072 22.076-5.143 36.785-18.509 44.229-39.782 3.645-10.366 6.747-20.913 10.133-31.381 9.255-28.54 18.819-56.975 27.634-85.668 3.36-10.882 9.796-5.143 15.484-4.109 7.497 1.37 5.35 6.306 3.748 10.908-3.153 8.971-6.334 17.914-9.461 26.91-15.2 43.763-30.321 87.58-45.573 131.317-4.782 13.805-15.174 21.508-28.487 21.585zM266.773 735.439c-2.404 66.149 53.069 130.179 124.235 138.167 42.161 4.731 80.188-6.256 112.137-35.104 4.681-4.214 7.497-4.834 12.486-0.284 55.706 50.614 140.495 47.693 194.65-4.575 49.297-47.564 56.638-128.966 14.916-185.862-4.911-6.669-10.391-13.003-16.26-18.869-61.265-61.472-122.658-122.814-184.026-184.181-12.407-12.407-18.353-12.461-30.502-0.311-61.574 61.574-123.33 122.97-184.621 184.853-28.098 28.384-43.738 62.479-43.014 106.167z" />
<glyph unicode="&#xe946;" glyph-name="sell" d="M345.353 649.131l229.227 169.869c29.655 21.994 69.523 21.994 99.204 0l229.227-169.869c22.34-16.555 35.654-43.424 35.654-71.874v-467.573c0-48.702-38.24-88.35-85.269-88.35h-458.428c-47.004 0-85.269 39.62-85.269 88.35v467.601c0 28.448 13.34 55.317 35.654 71.846zM898.667 577.284c0 15.108-7.083 29.359-18.925 38.146l-229.227 169.869c-15.746 11.653-36.922 11.653-52.668 0l-229.227-169.894c-11.868-8.787-18.925-23.040-18.925-38.148v-467.573c0-25.852 20.294-46.908 45.244-46.908h458.455c24.949 0 45.271 21.030 45.271 46.908v467.601zM104.466 601.227l244.74 253.584c14.893 15.43 36.171 22.503 56.958 18.94l213.225-36.674c11.556-1.982 22.029-7.153 30.69-14.493-20.22-1.715-39.3-4.152-57.218-13.153l-191.712 32.977c-11.014 1.902-22.313-1.849-30.223-10.046l-244.741-253.584c-13.548-14.037-13.548-36.834 0-50.871l203.192-210.534c-0.932-5.225-0.672-10.635 1.242-15.778 0.284-0.777 1.318-5.975 1.628-6.483 0.258-3.938 0-7.983-0.207-11.895-0.181-4.286-0.465-8.572-0.646-12.858l-226.9 235.1c-25.545 26.359-25.545 69.355 0 95.77h-0.026zM624.169 590.543c29.7 0 53.777 24.947 53.777 55.721s-24.077 55.721-53.777 55.721c-29.7 0-53.777-24.947-53.777-55.721s24.077-55.721 53.777-55.721zM454.257 693.331c19.42 0 35.162 16.311 35.162 36.433s-15.742 36.434-35.162 36.434c-19.42 0-35.164-16.312-35.164-36.434s15.744-36.433 35.164-36.433z" />
<glyph unicode="&#xe947;" d="M1024 736c0-123.712-100.288-224-224-224s-224 100.288-224 224c0 123.712 100.288 224 224 224s224-100.288 224-224z" />
<glyph unicode="&#xe948;" d="M536.902 779.733h-312.905l-32 67.2c-2.133 4.978-5.689 9.067-10.667 12.267s-10.667 4.8-17.067 4.8h-67.2c-7.111 0-12.978-2.311-17.6-6.933s-6.933-10.133-6.933-16.533c0-7.111 2.311-12.978 6.933-17.6s10.133-6.933 16.533-6.933h56.533l161.067-341.333-68.267-124.8c-12.090-22.044-12.267-42.49-0.533-61.333s31.11-28.267 58.133-28.267h466.133c6.4 0 11.91 2.31 16.533 6.933s6.933 10.49 6.933 17.6c0 6.4-2.31 12.090-6.933 17.067s-9.777 7.467-15.467 7.467h-474.667c-4.267 0-7.29 1.956-9.067 5.867s-1.6 7.29 0.533 10.133l58.667 108.8h315.733c12.8 0 24.89 3.733 36.267 11.2s20.267 16.89 26.667 28.267l3.172 5.726c-112.011 31.603-194.103 134.551-194.103 256.674 0 14.895 1.22 29.504 3.569 43.733z" />
<glyph unicode="&#xe949;" d="M261.865 60.8c13.156-13.51 29.333-20.267 48.533-20.267s35.556 6.756 49.067 20.267c13.51 13.51 20.267 29.51 20.267 48 0 19.2-6.933 35.556-20.8 49.067s-30.044 20.267-48.533 20.267c-19.2 0-35.377-6.577-48.533-19.733s-19.733-29.333-19.733-48.533c0-19.2 6.577-35.556 19.733-49.067z" />
<glyph unicode="&#xe94a;" d="M675.731 60.8c13.156-13.51 29.333-20.267 48.533-20.267s35.377 6.756 48.533 20.267c13.156 13.51 19.733 29.51 19.733 48 0 19.2-6.756 35.556-20.267 49.067s-29.51 20.267-48 20.267c-19.2 0-35.377-6.577-48.533-19.733s-19.733-29.333-19.733-48.533c0-19.2 6.577-35.556 19.733-49.067z" />
<glyph unicode="&#xe94b;" d="M837.286 775.928l66.564 75.835v44.237h-206.438v-54.769h125.549l-60.668-68.673v-45.080h31.177c38.761 0 55.191-13.903 55.191-36.23 0-24.015-21.067-37.918-55.191-37.918-30.756 0-61.933 9.69-84.26 26.541l-26.543-52.241c28.649-20.222 71.2-31.597 112.489-31.597 83.84 0 122.178 45.5 122.178 95.215 0 43.394-26.963 76.255-80.047 84.681z" />
<glyph unicode="&#xe94c;" glyph-name="shopping_cart" d="M310.398 40.533c-19.2 0-35.377 6.756-48.533 20.267s-19.733 29.867-19.733 49.067c0 19.2 6.577 35.377 19.733 48.533s29.333 19.733 48.533 19.733c18.49 0 34.667-6.756 48.533-20.267s20.8-29.867 20.8-49.067c0-18.49-6.756-34.49-20.267-48s-29.867-20.267-49.067-20.267zM724.265 40.533c-19.2 0-35.377 6.756-48.533 20.267s-19.733 29.867-19.733 49.067c0 19.2 6.577 35.377 19.733 48.533s29.333 19.733 48.533 19.733c18.49 0 34.49-6.756 48-20.267s20.267-29.867 20.267-49.067c0-18.49-6.577-34.49-19.733-48s-29.333-20.267-48.533-20.267zM302.931 260.267c-27.023 0-46.4 9.423-58.133 28.267s-11.556 39.29 0.533 61.333l68.267 124.8-161.067 341.333h-56.533c-6.4 0-11.911 2.311-16.533 6.933s-6.933 10.489-6.933 17.6c0 6.4 2.311 11.911 6.933 16.533s10.489 6.933 17.6 6.933h67.2c6.4 0 12.089-1.6 17.067-4.8s8.533-7.289 10.667-12.267l32-67.2h590.933c22.756 0 37.69-7.111 44.8-21.333s5.69-30.223-4.267-48l-131.2-236.8c-6.4-11.377-15.29-20.8-26.667-28.267s-23.467-11.2-36.267-11.2h-315.733l-58.667-108.8c-2.133-2.844-2.31-6.223-0.533-10.133s4.8-5.867 9.067-5.867h474.667c5.69 0 10.844-2.49 15.467-7.467s6.933-10.667 6.933-17.067c0-7.11-2.31-12.977-6.933-17.6s-10.133-6.933-16.533-6.933h-466.133z" />
<glyph unicode="&#xe94d;" glyph-name="sort_by_alpha" d="M135.469 243.2c-10.667 0-18.133 3.377-22.4 10.133-4.267 6.754-4.622 14.754-1.067 24l146.133 352c2.133 6.4 6.577 11.91 13.333 16.533 6.756 4.621 13.69 6.933 20.8 6.933s13.867-2.313 20.267-6.933c6.4-4.623 11.023-10.133 13.867-16.533l142.933-350.935c4.267-9.954 4.090-18.31-0.533-25.065s-12.267-10.133-22.933-10.133c-4.267 0-8.356 1.421-12.267 4.265-3.91 2.846-6.577 6.4-8 10.667l-34.133 89.6h-199.466l-37.333-90.667c-1.422-3.554-4.089-6.754-8-9.6-3.911-2.844-7.644-4.265-11.2-4.265zM208.002 390.398h165.333l-80 205.869h-4.267l-81.066-205.869zM627.202 243.2c-9.244 0-17.244 3.377-24 10.133-6.756 6.754-10.133 14.754-10.133 24 0 4.267 0.89 9.065 2.667 14.398s4.090 9.779 6.933 13.333l233.6 305.069h-204.8c-6.4 0-11.556 1.954-15.467 5.867-3.91 3.91-5.867 9.067-5.867 15.467 0 5.687 1.956 10.667 5.867 14.933s9.067 6.4 15.467 6.4h219.733c9.244 0 17.244-3.379 24-10.133 6.756-6.756 10.133-15.113 10.133-25.067 0-4.267-1.067-9.067-3.2-14.4s-4.623-9.779-7.467-13.333l-231.467-304h222.933c5.69 0 10.667-1.956 14.933-5.867 4.267-3.913 6.4-9.067 6.4-15.467 0-5.69-2.133-10.667-6.4-14.933s-9.244-6.4-14.933-6.4h-238.933zM451.202 769.066c-7.11 0-12.090 3.378-14.933 10.133s-1.777 12.622 3.2 17.6l60.8 60.8c1.423 0.711 5.333 2.489 11.733 5.333 1.423 0 5.333-1.778 11.733-5.333l60.8-60.8c4.977-4.978 6.044-10.844 3.2-17.6s-7.823-10.133-14.933-10.133h-121.6zM512.002 33.065c-1.423 0-5.333 1.779-11.733 5.333l-60.8 60.802c-4.977 4.977-6.044 10.844-3.2 17.598 2.844 6.756 7.823 10.135 14.933 10.135h121.6c7.11 0 12.090-3.379 14.933-10.135 2.844-6.754 1.777-12.621-3.2-17.598l-60.8-60.802c-1.423-0.71-5.333-2.487-11.733-5.333z" />
<glyph unicode="&#xe94e;" glyph-name="storefront" d="M199.469 74.667c-17.067 0-31.644 6.044-43.733 18.133s-18.133 26.667-18.133 43.733v356.267c-19.911 16.356-33.067 36.267-39.467 59.733s-6.044 47.29 1.067 71.467l43.733 139.733c5.689 18.489 15.289 32.711 28.8 42.667s29.511 14.933 48 14.933h580.267c19.2 0 35.733-4.978 49.6-14.933s23.646-23.822 29.333-41.6l45.867-140.8c7.113-24.177 7.29-48.177 0.533-72-6.754-23.823-20.087-43.556-40-59.2v-356.267c0-17.067-6.044-31.644-18.133-43.733-12.087-12.090-26.667-18.133-43.733-18.133h-624zM606.935 515.2c24.89 0 44.623 7.29 59.2 21.867 14.579 14.577 20.8 31.11 18.667 49.6l-28.8 186.667h-119.467v-182.4c0-19.91 6.756-37.51 20.267-52.8 13.513-15.29 30.223-22.933 50.133-22.933zM409.602 515.2c22.046 0 40.533 7.467 55.467 22.4s22.4 32.71 22.4 53.333v182.4h-119.467l-28.8-188.8c-2.133-16.356 3.556-32 17.067-46.933 13.513-14.933 31.29-22.4 53.333-22.4zM216.535 515.2c19.2 0 35.556 6.4 49.067 19.2 13.513 12.8 21.333 28.444 23.467 46.933l28.8 192h-107.733c-4.267 0-8-1.067-11.2-3.2s-5.156-5.333-5.867-9.6l-45.867-148.267c-7.822-23.467-4.8-45.51 9.067-66.133s33.956-30.933 60.266-30.933zM806.402 515.2c24.179 0 43.913 9.777 59.2 29.333 15.29 19.556 19.023 42.133 11.2 67.733l-46.933 149.333c-0.71 4.267-2.487 7.289-5.333 9.067-2.844 1.778-6.754 2.667-11.733 2.667h-106.667l27.733-192c2.846-18.49 11.023-34.133 24.533-46.933 13.513-12.8 29.513-19.2 48-19.2z" />
<glyph unicode="&#xe94f;" glyph-name="swap_vert" d="M620.798 130.133v320c0 7.113 2.31 12.8 6.933 17.067s10.133 6.402 16.533 6.402c7.11 0 12.977-2.135 17.6-6.402s6.933-9.954 6.933-17.067v-321.067l120.533 119.469c4.267 4.267 9.423 6.4 15.467 6.4s11.556-2.49 16.533-7.469c4.977-5.687 7.467-11.554 7.467-17.598 0-6.046-2.49-11.556-7.467-16.535l-154.667-154.667c-2.844-3.554-6.223-6.044-10.133-7.465-3.91-1.423-7.644-2.135-11.2-2.135-4.267 0-8.177 0.713-11.733 2.135s-6.756 3.91-9.6 7.465l-155.733 156.8c-4.267 4.267-6.4 9.423-6.4 15.469 0 6.044 2.49 11.554 7.467 16.531 4.267 4.979 9.777 7.469 16.533 7.469s12.623-2.49 17.6-7.469l117.333-117.333zM354.131 768.001l-119.467-118.401c-3.556-4.267-8.533-6.4-14.933-6.4s-12.089 2.49-17.067 7.467c-4.978 4.979-7.467 10.667-7.467 17.067s2.489 12.090 7.467 17.067l154.667 154.668c2.844 2.844 6.044 5.156 9.6 6.933s7.467 2.667 11.733 2.667c4.267 0 8.177-0.889 11.733-2.667s6.756-4.089 9.6-6.933l155.733-155.734c4.267-4.267 6.4-9.6 6.4-16s-2.49-12.087-7.467-17.067c-4.977-4.977-10.667-7.467-17.067-7.467s-12.090 2.49-17.067 7.467l-118.4 117.334v-320.001c0-7.11-2.31-12.977-6.933-17.6-4.623-4.621-10.49-6.933-17.6-6.933s-12.8 2.313-17.067 6.933c-4.267 4.623-6.4 10.49-6.4 17.6v320.001z" />
<glyph unicode="&#xe950;" glyph-name="toggle_off" d="M298.667 213.333c-65.423 0-120.889 22.756-166.4 68.267s-68.267 100.977-68.267 166.4c0 65.423 22.756 120.89 68.267 166.4s100.977 68.267 166.4 68.267h426.667c65.423 0 120.89-22.756 166.4-68.267s68.267-100.977 68.267-166.4c0-65.423-22.756-120.89-68.267-166.4s-100.977-68.267-166.4-68.267h-426.667zM297.6 345.6c28.444 0 52.623 9.956 72.533 29.867s29.867 44.090 29.867 72.533c0 28.444-9.777 52.623-29.333 72.533s-43.556 29.867-72 29.867c-29.156 0-53.69-9.956-73.6-29.867s-29.867-44.090-29.867-72.533c0-28.444 9.956-52.623 29.867-72.533s44.090-29.867 72.533-29.867z" />
<glyph unicode="&#xe951;" glyph-name="toggle_on" d="M298.667 213.333c-65.423 0-120.889 22.756-166.4 68.267s-68.267 100.977-68.267 166.4c0 65.423 22.756 120.89 68.267 166.4s100.977 68.267 166.4 68.267h426.667c65.423 0 120.89-22.756 166.4-68.267s68.267-100.977 68.267-166.4c0-65.423-22.756-120.89-68.267-166.4s-100.977-68.267-166.4-68.267h-426.667zM725.333 345.6c29.156 0 53.69 9.956 73.6 29.867s29.867 44.090 29.867 72.533c0 28.444-9.956 52.623-29.867 72.533s-44.090 29.867-72.533 29.867c-28.444 0-52.623-9.956-72.533-29.867s-29.867-44.090-29.867-72.533c0-28.444 9.777-52.623 29.333-72.533s43.556-29.867 72-29.867z" />
<glyph unicode="&#xe952;" glyph-name="vaccines-1" d="M125.364 407.671l7.743-20.559 15.309 15.75c5.367 5.513 11.409 10.91 18.008 16.041l7.567 5.897-2.786 9.18c-18.271 59.977 5.983 124.879 58.978 157.815l164.444 102.266 155.264-249.728 50.005-2.054 144.617 89.892c41.939 26.071 71.238 67.014 82.5 115.26 11.262 48.215 3.078 97.897-22.993 139.866-53.935 86.724-168.316 113.412-255.098 59.507l-348.154-216.441c-55.401-34.462-87.985-94.231-87.164-159.927 0.117-8.975 0.704-17.039 1.848-24.666 1.848-12.757 5.191-25.574 9.913-38.097zM736.83 422.046h-449.69c-47.334 0-93.41-16.922-129.718-47.599-7.303-6.189-14.078-12.7-20.119-19.415-8.564-9.532-16.248-19.885-22.817-30.795-5.103-8.416-9.18-16.247-12.494-23.872-11.057-25.487-16.658-52.439-16.658-80.126 0-111.3 90.536-201.837 201.837-201.837h449.69c111.3 0 201.807 90.537 201.807 201.837s-90.537 201.807-201.837 201.807zM512.674 376.119h217.41c85.961 0 155.881-69.948 155.881-155.908 0-85.963-69.948-155.91-155.91-155.91h-217.41v311.819h0.030z" />
<glyph unicode="&#xe953;" glyph-name="vaccines" d="M298.669 21.333c-7.11 0-12.977 2.31-17.6 6.933s-6.933 10.49-6.933 17.6v206.933h-78.933c-13.511 0-25.067 4.8-34.667 14.4s-14.4 21.156-14.4 34.667v356.267h-18.133c-7.111 0-12.978 2.31-17.6 6.933s-6.933 10.49-6.933 17.6c0 7.11 2.311 12.977 6.933 17.6s10.489 6.933 17.6 6.933h146.133v108.8h-39.467c-7.11 0-12.977 2.311-17.6 6.933s-6.933 10.489-6.933 17.6c0 6.4 2.311 11.911 6.933 16.533s10.49 6.933 17.6 6.933h128c7.11 0 12.977-2.311 17.6-6.933s6.933-10.489 6.933-17.6c0-7.111-2.31-12.8-6.933-17.067s-10.49-6.4-17.6-6.4h-39.467v-108.8h146.133c7.11 0 12.977-2.31 17.6-6.933s6.933-10.49 6.933-17.6c0-7.11-2.31-12.977-6.933-17.6s-10.49-6.933-17.6-6.933h-18.133v-356.267c0-13.51-4.8-25.067-14.4-34.667s-21.156-14.4-34.667-14.4h-78.933v-206.933c0-7.11-2.31-12.977-6.933-17.6s-10.49-6.933-17.6-6.933zM195.202 301.867h206.933v96h-92.8c-4.977 0-9.244 1.777-12.8 5.333s-5.333 7.823-5.333 12.8c0 4.977 1.777 9.244 5.333 12.8s7.823 5.333 12.8 5.333h92.8v91.733h-92.8c-4.977 0-9.244 1.777-12.8 5.333s-5.333 7.823-5.333 12.8c0 4.977 1.777 9.244 5.333 12.8s7.823 5.333 12.8 5.333h92.8v96h-206.933v-356.267zM629.335 32c-13.51 0-24.89 4.623-34.133 13.867s-13.867 20.623-13.867 34.133v293.333c0 22.044 3.377 39.11 10.133 51.2s14.4 22.756 22.933 32c12.090 12.090 20.267 22.044 24.533 29.867s6.4 16.356 6.4 25.6v39.467h-19.2c-6.4 0-11.91 2.31-16.533 6.933s-6.933 10.49-6.933 17.6c0 7.11 2.31 12.977 6.933 17.6s10.133 6.933 16.533 6.933h213.333c7.11 0 12.977-2.31 17.6-6.933s6.933-10.49 6.933-17.6c0-7.11-2.31-12.977-6.933-17.6s-10.49-6.933-17.6-6.933h-18.133v-39.467c0-9.244 2.49-17.956 7.467-26.133s13.156-18.667 24.533-31.467c9.244-9.244 16.89-19.556 22.933-30.933s9.067-28.090 9.067-50.133v-293.333c0-13.51-4.623-24.89-13.867-34.133s-20.623-13.867-34.133-13.867h-208zM629.335 340.267h208v33.067c0 13.51-3.556 25.423-10.667 35.733s-14.933 20.8-23.467 31.467c-9.956 11.377-17.423 22.4-22.4 33.067s-7.467 23.467-7.467 38.4v39.467h-80v-39.467c0-14.223-2.49-26.667-7.467-37.333s-12.090-22.044-21.333-34.133c-9.244-9.956-17.423-20.267-24.533-30.933s-10.667-22.756-10.667-36.267v-33.067zM629.335 80h208v97.067h-208v-97.067z" />
<glyph unicode="&#xe954;" glyph-name="video_camera_front" d="M275.2 290.133h323.2v14.933c0 39.11-19.377 64.177-58.133 75.2s-73.067 16.533-102.933 16.533c-30.577 0-65.244-5.51-104-16.533s-58.133-36.090-58.133-75.2v-14.933zM437.333 465.067c21.333 0 39.11 6.933 53.333 20.8s21.333 31.823 21.333 53.867c0 21.333-7.11 39.11-21.333 53.333s-32 21.333-53.333 21.333c-22.044 0-40-7.11-53.867-21.333s-20.8-32-20.8-53.333c0-22.044 6.933-40 20.8-53.867s31.823-20.8 53.867-20.8zM178.133 128c-16.356 0-30.578 6.044-42.667 18.133s-18.133 26.667-18.133 43.733v516.267c0 17.067 6.044 31.644 18.133 43.733s26.311 18.133 42.667 18.133h517.333c17.067 0 31.644-6.044 43.733-18.133s18.133-26.667 18.133-43.733v-221.867l122.667 122.667c4.977 5.69 10.667 7.11 17.067 4.267s9.6-7.823 9.6-14.933v-296.533c0-7.11-3.2-12.090-9.6-14.933s-12.090-1.423-17.067 4.267l-122.667 123.733v-222.933c0-17.067-6.044-31.644-18.133-43.733s-26.667-18.133-43.733-18.133h-517.333z" />
<glyph unicode="&#xe955;" glyph-name="warning" d="M133.334 85.333c-12.089 0-21.155 5.156-27.2 15.467-6.044 10.313-6.222 20.446-0.533 30.402l379.732 654.932c6.4 9.956 15.29 14.933 26.667 14.933 11.379 0 20.267-4.978 26.667-14.933l379.733-654.932c5.69-9.956 5.513-20.090-0.533-30.402-6.044-10.31-15.11-15.467-27.2-15.467h-757.332zM515.2 534.4c-7.11 0-12.977-2.31-17.6-6.933-4.621-4.621-6.933-10.133-6.933-16.533v-184.533c0-7.11 2.313-12.977 6.933-17.6 4.623-4.621 10.49-6.933 17.6-6.933 7.113 0 12.979 2.313 17.6 6.933 4.623 4.623 6.933 10.49 6.933 17.6v184.533c0 6.4-2.487 11.913-7.467 16.533-4.977 4.623-10.667 6.933-17.067 6.933zM515.2 197.333c7.823 0 14.223 2.667 19.2 8 4.979 5.333 7.467 11.913 7.467 19.733 0 7.113-2.667 13.156-8 18.135-5.333 4.977-11.554 7.465-18.667 7.465-7.821 0-14.221-2.487-19.2-7.465-4.977-4.979-7.467-11.379-7.467-19.202 0-7.11 2.49-13.333 7.467-18.667 4.979-5.333 11.379-8 19.2-8z" />
<glyph unicode="&#xe956;" glyph-name="work" d="M168.533 85.333c-17.067 0-31.644 6.044-43.733 18.133s-18.133 26.667-18.133 43.733v473.6c0 17.067 6.044 31.644 18.133 43.733s26.667 18.133 43.733 18.133h194.133v87.467c0 17.067 6.044 31.644 18.133 43.733s26.667 18.133 43.733 18.133h174.933c17.067 0 31.644-6.044 43.733-18.133s18.133-26.667 18.133-43.733v-87.467h194.133c17.067 0 31.644-6.044 43.733-18.133s18.133-26.667 18.133-43.733v-473.6c0-17.067-6.044-31.644-18.133-43.733s-26.667-18.133-43.733-18.133h-686.933zM410.667 682.667h202.667v87.467c0 3.556-1.423 6.756-4.267 9.6s-6.044 4.267-9.6 4.267h-174.933c-3.556 0-6.756-1.422-9.6-4.267s-4.267-6.044-4.267-9.6v-87.467z" />
</font>
</defs>
</svg>
